# This file uses centimeters as units for non-parametric coordinates.

mtllib canned-food1.mtl
g default
v 0.269758 0.029824 -0.087650
v 0.229470 0.029824 -0.166720
v 0.166720 0.029824 -0.229470
v 0.087650 0.029824 -0.269758
v 0.000000 0.029824 -0.283640
v -0.087650 0.029824 -0.269758
v -0.166720 0.029824 -0.229470
v -0.229470 0.029824 -0.166720
v -0.269758 0.029824 -0.087650
v -0.283640 0.029824 0.000000
v -0.269758 0.029824 0.087650
v -0.229470 0.029824 0.166720
v -0.166720 0.029824 0.229470
v -0.087650 0.029824 0.269758
v 0.000000 0.029824 0.283640
v 0.087650 0.029824 0.269758
v 0.166720 0.029824 0.229470
v 0.229470 0.029824 0.166720
v 0.269758 0.029824 0.087650
v 0.283640 0.029824 0.000000
v 0.269758 0.725464 -0.087650
v 0.229470 0.725464 -0.166720
v 0.166720 0.725464 -0.229470
v 0.087650 0.725464 -0.269758
v 0.000000 0.725464 -0.283640
v -0.087650 0.725464 -0.269758
v -0.166720 0.725464 -0.229470
v -0.229470 0.725464 -0.166720
v -0.269758 0.725464 -0.087650
v -0.283640 0.725464 0.000000
v -0.269758 0.725464 0.087650
v -0.229470 0.725464 0.166720
v -0.166720 0.725464 0.229470
v -0.087650 0.725464 0.269758
v 0.000000 0.725464 0.283640
v 0.087650 0.725464 0.269758
v 0.166720 0.725464 0.229470
v 0.229470 0.725464 0.166720
v 0.269758 0.725464 0.087650
v 0.283640 0.725464 0.000000
v 0.000000 0.029824 0.000000
v 0.000000 0.725464 0.000000
vt 0.003547 -0.000080
vt 0.053321 -0.000080
vt 0.053321 0.500532
vt 0.003547 0.500532
vt 0.053321 -0.000080
vt 0.103096 -0.000080
vt 0.103096 0.500532
vt 0.053321 0.500532
vt 0.103096 -0.000080
vt 0.152871 -0.000080
vt 0.152871 0.500532
vt 0.103096 0.500532
vt 0.152871 -0.000080
vt 0.202646 -0.000080
vt 0.202646 0.500532
vt 0.152871 0.500532
vt 0.202646 -0.000080
vt 0.252421 -0.000080
vt 0.252421 0.500532
vt 0.202646 0.500532
vt 0.252421 -0.000080
vt 0.302196 -0.000080
vt 0.302196 0.500532
vt 0.252421 0.500532
vt 0.302196 -0.000080
vt 0.351970 -0.000080
vt 0.351970 0.500532
vt 0.302196 0.500532
vt 0.351970 -0.000080
vt 0.401745 -0.000080
vt 0.401745 0.500532
vt 0.351970 0.500532
vt 0.401745 -0.000080
vt 0.451520 -0.000080
vt 0.451520 0.500532
vt 0.401745 0.500532
vt 0.451520 -0.000080
vt 0.501295 -0.000080
vt 0.501295 0.500532
vt 0.451520 0.500532
vt 0.501295 -0.000080
vt 0.551070 -0.000080
vt 0.551070 0.500532
vt 0.501295 0.500532
vt 0.551070 -0.000080
vt 0.600845 -0.000080
vt 0.600845 0.500532
vt 0.551070 0.500532
vt 0.600845 -0.000080
vt 0.650620 -0.000080
vt 0.650620 0.500532
vt 0.600845 0.500532
vt 0.650620 -0.000080
vt 0.700394 -0.000080
vt 0.700394 0.500532
vt 0.650620 0.500532
vt 0.700394 -0.000080
vt 0.750169 -0.000080
vt 0.750169 0.500532
vt 0.700394 0.500532
vt 0.750169 -0.000080
vt 0.799944 -0.000080
vt 0.799944 0.500532
vt 0.750169 0.500532
vt 0.799944 -0.000080
vt 0.849719 -0.000080
vt 0.849719 0.500532
vt 0.799944 0.500532
vt 0.849719 -0.000080
vt 0.899493 -0.000080
vt 0.899493 0.500532
vt 0.849719 0.500532
vt 0.899493 -0.000080
vt 0.949268 -0.000080
vt 0.949268 0.500532
vt 0.899493 0.500532
vt 0.949268 -0.000080
vt 0.999043 -0.000080
vt 0.999043 0.500532
vt 0.949268 0.500532
vt 0.703143 0.609820
vt 0.737026 0.676319
vt 0.510157 0.740491
vt 0.650370 0.557047
vt 0.703143 0.609820
vt 0.510157 0.740491
vt 0.583871 0.523164
vt 0.650370 0.557047
vt 0.510157 0.740491
vt 0.510157 0.511489
vt 0.583871 0.523164
vt 0.510157 0.740491
vt 0.436443 0.523164
vt 0.510157 0.511489
vt 0.510157 0.740491
vt 0.369945 0.557047
vt 0.436443 0.523164
vt 0.510157 0.740491
vt 0.317171 0.609821
vt 0.369945 0.557047
vt 0.510157 0.740491
vt 0.283289 0.676319
vt 0.317171 0.609821
vt 0.510157 0.740491
vt 0.271614 0.750033
vt 0.283289 0.676319
vt 0.510157 0.740491
vt 0.283289 0.823747
vt 0.271614 0.750033
vt 0.510157 0.740491
vt 0.317171 0.890245
vt 0.283289 0.823747
vt 0.510157 0.740491
vt 0.369945 0.943019
vt 0.317171 0.890245
vt 0.510157 0.740491
vt 0.436443 0.976901
vt 0.369945 0.943019
vt 0.510157 0.740491
vt 0.510157 0.988577
vt 0.436443 0.976901
vt 0.510157 0.740491
vt 0.583871 0.976901
vt 0.510157 0.988577
vt 0.510157 0.740491
vt 0.650370 0.943019
vt 0.583871 0.976901
vt 0.510157 0.740491
vt 0.703143 0.890245
vt 0.650370 0.943019
vt 0.510157 0.740491
vt 0.737026 0.823747
vt 0.703143 0.890245
vt 0.510157 0.740491
vt 0.748701 0.750033
vt 0.737026 0.823747
vt 0.510157 0.740491
vt 0.737026 0.676319
vt 0.748701 0.750033
vt 0.510157 0.740491
vt 0.738285 0.826759
vt 0.703992 0.894062
vt 0.508670 0.742495
vt 0.703992 0.894062
vt 0.650580 0.947474
vt 0.508670 0.742495
vt 0.650580 0.947474
vt 0.583276 0.981767
vt 0.508670 0.742495
vt 0.583276 0.981767
vt 0.508670 0.993584
vt 0.508670 0.742495
vt 0.508670 0.993584
vt 0.434063 0.981767
vt 0.508670 0.742495
vt 0.434063 0.981767
vt 0.366760 0.947474
vt 0.508670 0.742495
vt 0.366760 0.947474
vt 0.313347 0.894062
vt 0.508670 0.742495
vt 0.313347 0.894062
vt 0.279055 0.826759
vt 0.508670 0.742495
vt 0.279055 0.826759
vt 0.267238 0.752152
vt 0.508670 0.742495
vt 0.267238 0.752152
vt 0.279055 0.677546
vt 0.508670 0.742495
vt 0.279055 0.677546
vt 0.313347 0.610242
vt 0.508670 0.742495
vt 0.313347 0.610242
vt 0.366760 0.556830
vt 0.508670 0.742495
vt 0.366760 0.556830
vt 0.434063 0.522537
vt 0.508670 0.742495
vt 0.434063 0.522537
vt 0.508670 0.510720
vt 0.508670 0.742495
vt 0.508670 0.510720
vt 0.583276 0.522537
vt 0.508670 0.742495
vt 0.583276 0.522537
vt 0.650580 0.556830
vt 0.508670 0.742495
vt 0.650580 0.556830
vt 0.703992 0.610242
vt 0.508670 0.742495
vt 0.703992 0.610242
vt 0.738285 0.677546
vt 0.508670 0.742495
vt 0.738285 0.677546
vt 0.750101 0.752152
vt 0.508670 0.742495
vt 0.750101 0.752152
vt 0.738285 0.826759
vt 0.508670 0.742495
vn 0.951057 0.000000 -0.309016
vn 0.809017 0.000000 -0.587785
vn 0.809017 0.000000 -0.587785
vn 0.951057 0.000000 -0.309016
vn 0.809017 0.000000 -0.587785
vn 0.587785 0.000000 -0.809017
vn 0.587785 0.000000 -0.809017
vn 0.809017 0.000000 -0.587785
vn 0.587785 0.000000 -0.809017
vn 0.309017 0.000000 -0.951057
vn 0.309017 0.000000 -0.951057
vn 0.587785 0.000000 -0.809017
vn 0.309017 0.000000 -0.951057
vn -0.000000 0.000000 -1.000000
vn -0.000000 0.000000 -1.000000
vn 0.309017 0.000000 -0.951057
vn -0.000000 0.000000 -1.000000
vn -0.309017 0.000000 -0.951056
vn -0.309017 0.000000 -0.951056
vn -0.000000 0.000000 -1.000000
vn -0.309017 0.000000 -0.951056
vn -0.587785 0.000000 -0.809017
vn -0.587785 0.000000 -0.809017
vn -0.309017 0.000000 -0.951056
vn -0.587785 0.000000 -0.809017
vn -0.809017 0.000000 -0.587785
vn -0.809017 0.000000 -0.587785
vn -0.587785 0.000000 -0.809017
vn -0.809017 0.000000 -0.587785
vn -0.951056 0.000000 -0.309017
vn -0.951056 0.000000 -0.309017
vn -0.809017 0.000000 -0.587785
vn -0.951056 0.000000 -0.309017
vn -1.000000 0.000000 0.000000
vn -1.000000 0.000000 0.000000
vn -0.951056 0.000000 -0.309017
vn -1.000000 0.000000 0.000000
vn -0.951056 0.000000 0.309017
vn -0.951056 0.000000 0.309017
vn -1.000000 0.000000 0.000000
vn -0.951056 0.000000 0.309017
vn -0.809017 0.000000 0.587785
vn -0.809017 0.000000 0.587785
vn -0.951056 0.000000 0.309017
vn -0.809017 0.000000 0.587785
vn -0.587785 0.000000 0.809017
vn -0.587785 0.000000 0.809017
vn -0.809017 0.000000 0.587785
vn -0.587785 0.000000 0.809017
vn -0.309017 0.000000 0.951057
vn -0.309017 0.000000 0.951057
vn -0.587785 0.000000 0.809017
vn -0.309017 0.000000 0.951057
vn 0.000000 0.000000 1.000000
vn 0.000000 0.000000 1.000000
vn -0.309017 0.000000 0.951057
vn 0.000000 0.000000 1.000000
vn 0.309017 0.000000 0.951056
vn 0.309017 0.000000 0.951056
vn 0.000000 0.000000 1.000000
vn 0.309017 0.000000 0.951056
vn 0.587785 0.000000 0.809017
vn 0.587785 0.000000 0.809017
vn 0.309017 0.000000 0.951056
vn 0.587785 0.000000 0.809017
vn 0.809017 0.000000 0.587785
vn 0.809017 0.000000 0.587785
vn 0.587785 0.000000 0.809017
vn 0.809017 0.000000 0.587785
vn 0.951056 0.000000 0.309017
vn 0.951056 0.000000 0.309017
vn 0.809017 0.000000 0.587785
vn 0.951056 0.000000 0.309017
vn 1.000000 0.000000 0.000001
vn 1.000000 0.000000 0.000001
vn 0.951056 0.000000 0.309017
vn 1.000000 0.000000 0.000001
vn 0.951057 0.000000 -0.309016
vn 0.951057 0.000000 -0.309016
vn 1.000000 0.000000 0.000001
vn 0.000000 -1.000000 0.000000
vn 0.000000 -1.000000 0.000000
vn 0.000000 -1.000000 0.000000
vn 0.000000 -1.000000 0.000000
vn 0.000000 -1.000000 0.000000
vn 0.000000 -1.000000 0.000000
vn 0.000000 -1.000000 0.000000
vn 0.000000 -1.000000 0.000000
vn 0.000000 -1.000000 0.000000
vn 0.000000 -1.000000 0.000000
vn 0.000000 -1.000000 0.000000
vn 0.000000 -1.000000 0.000000
vn 0.000000 -1.000000 0.000000
vn 0.000000 -1.000000 0.000000
vn 0.000000 -1.000000 0.000000
vn 0.000000 -1.000000 0.000000
vn 0.000000 -1.000000 0.000000
vn 0.000000 -1.000000 0.000000
vn 0.000000 -1.000000 0.000000
vn 0.000000 -1.000000 0.000000
vn 0.000000 -1.000000 0.000000
vn 0.000000 -1.000000 0.000000
vn 0.000000 -1.000000 0.000000
vn 0.000000 -1.000000 0.000000
vn 0.000000 -1.000000 0.000000
vn 0.000000 -1.000000 0.000000
vn 0.000000 -1.000000 0.000000
vn 0.000000 -1.000000 0.000000
vn 0.000000 -1.000000 0.000000
vn 0.000000 -1.000000 0.000000
vn 0.000000 -1.000000 0.000000
vn 0.000000 -1.000000 0.000000
vn 0.000000 -1.000000 0.000000
vn 0.000000 -1.000000 0.000000
vn 0.000000 -1.000000 0.000000
vn 0.000000 -1.000000 0.000000
vn 0.000000 -1.000000 0.000000
vn 0.000000 -1.000000 0.000000
vn 0.000000 -1.000000 0.000000
vn 0.000000 -1.000000 0.000000
vn 0.000000 -1.000000 0.000000
vn 0.000000 -1.000000 0.000000
vn 0.000000 -1.000000 0.000000
vn 0.000000 -1.000000 0.000000
vn 0.000000 -1.000000 0.000000
vn 0.000000 -1.000000 0.000000
vn 0.000000 -1.000000 0.000000
vn 0.000000 -1.000000 0.000000
vn 0.000000 -1.000000 0.000000
vn 0.000000 -1.000000 0.000000
vn 0.000000 -1.000000 0.000000
vn 0.000000 -1.000000 0.000000
vn 0.000000 -1.000000 0.000000
vn 0.000000 -1.000000 0.000000
vn 0.000000 -1.000000 0.000000
vn 0.000000 -1.000000 0.000000
vn 0.000000 -1.000000 0.000000
vn 0.000000 -1.000000 0.000000
vn 0.000000 -1.000000 0.000000
vn 0.000000 -1.000000 0.000000
vn 0.000000 1.000000 0.000000
vn 0.000000 1.000000 0.000000
vn 0.000000 1.000000 0.000000
vn 0.000000 1.000000 0.000000
vn 0.000000 1.000000 0.000000
vn 0.000000 1.000000 0.000000
vn 0.000000 1.000000 0.000000
vn 0.000000 1.000000 0.000000
vn 0.000000 1.000000 0.000000
vn 0.000000 1.000000 0.000000
vn 0.000000 1.000000 0.000000
vn 0.000000 1.000000 0.000000
vn 0.000000 1.000000 0.000000
vn 0.000000 1.000000 0.000000
vn 0.000000 1.000000 0.000000
vn 0.000000 1.000000 0.000000
vn 0.000000 1.000000 0.000000
vn 0.000000 1.000000 0.000000
vn 0.000000 1.000000 0.000000
vn 0.000000 1.000000 0.000000
vn 0.000000 1.000000 0.000000
vn 0.000000 1.000000 0.000000
vn 0.000000 1.000000 0.000000
vn 0.000000 1.000000 0.000000
vn 0.000000 1.000000 0.000000
vn 0.000000 1.000000 0.000000
vn 0.000000 1.000000 0.000000
vn 0.000000 1.000000 0.000000
vn 0.000000 1.000000 0.000000
vn 0.000000 1.000000 0.000000
vn 0.000000 1.000000 0.000000
vn 0.000000 1.000000 0.000000
vn 0.000000 1.000000 0.000000
vn 0.000000 1.000000 0.000000
vn 0.000000 1.000000 0.000000
vn 0.000000 1.000000 0.000000
vn 0.000000 1.000000 0.000000
vn 0.000000 1.000000 0.000000
vn 0.000000 1.000000 0.000000
vn 0.000000 1.000000 0.000000
vn 0.000000 1.000000 0.000000
vn 0.000000 1.000000 0.000000
vn 0.000000 1.000000 0.000000
vn 0.000000 1.000000 0.000000
vn 0.000000 1.000000 0.000000
vn 0.000000 1.000000 0.000000
vn 0.000000 1.000000 0.000000
vn 0.000000 1.000000 0.000000
vn 0.000000 1.000000 0.000000
vn 0.000000 1.000000 0.000000
vn 0.000000 1.000000 0.000000
vn 0.000000 1.000000 0.000000
vn 0.000000 1.000000 0.000000
vn 0.000000 1.000000 0.000000
vn 0.000000 1.000000 0.000000
vn 0.000000 1.000000 0.000000
vn 0.000000 1.000000 0.000000
vn 0.000000 1.000000 0.000000
vn 0.000000 1.000000 0.000000
vn 0.000000 1.000000 0.000000
s off
g canned_food1:pCylinder1
usemtl initialShadingGroup
f 1/1/1 2/2/2 22/3/3 21/4/4
f 2/5/5 3/6/6 23/7/7 22/8/8
f 3/9/9 4/10/10 24/11/11 23/12/12
f 4/13/13 5/14/14 25/15/15 24/16/16
f 5/17/17 6/18/18 26/19/19 25/20/20
f 6/21/21 7/22/22 27/23/23 26/24/24
f 7/25/25 8/26/26 28/27/27 27/28/28
f 8/29/29 9/30/30 29/31/31 28/32/32
f 9/33/33 10/34/34 30/35/35 29/36/36
f 10/37/37 11/38/38 31/39/39 30/40/40
f 11/41/41 12/42/42 32/43/43 31/44/44
f 12/45/45 13/46/46 33/47/47 32/48/48
f 13/49/49 14/50/50 34/51/51 33/52/52
f 14/53/53 15/54/54 35/55/55 34/56/56
f 15/57/57 16/58/58 36/59/59 35/60/60
f 16/61/61 17/62/62 37/63/63 36/64/64
f 17/65/65 18/66/66 38/67/67 37/68/68
f 18/69/69 19/70/70 39/71/71 38/72/72
f 19/73/73 20/74/74 40/75/75 39/76/76
f 20/77/77 1/78/78 21/79/79 40/80/80
f 2/81/81 1/82/82 41/83/83
f 3/84/84 2/85/85 41/86/86
f 4/87/87 3/88/88 41/89/89
f 5/90/90 4/91/91 41/92/92
f 6/93/93 5/94/94 41/95/95
f 7/96/96 6/97/97 41/98/98
f 8/99/99 7/100/100 41/101/101
f 9/102/102 8/103/103 41/104/104
f 10/105/105 9/106/106 41/107/107
f 11/108/108 10/109/109 41/110/110
f 12/111/111 11/112/112 41/113/113
f 13/114/114 12/115/115 41/116/116
f 14/117/117 13/118/118 41/119/119
f 15/120/120 14/121/121 41/122/122
f 16/123/123 15/124/124 41/125/125
f 17/126/126 16/127/127 41/128/128
f 18/129/129 17/130/130 41/131/131
f 19/132/132 18/133/133 41/134/134
f 20/135/135 19/136/136 41/137/137
f 1/138/138 20/139/139 41/140/140
f 21/141/141 22/142/142 42/143/143
f 22/144/144 23/145/145 42/146/146
f 23/147/147 24/148/148 42/149/149
f 24/150/150 25/151/151 42/152/152
f 25/153/153 26/154/154 42/155/155
f 26/156/156 27/157/157 42/158/158
f 27/159/159 28/160/160 42/161/161
f 28/162/162 29/163/163 42/164/164
f 29/165/165 30/166/166 42/167/167
f 30/168/168 31/169/169 42/170/170
f 31/171/171 32/172/172 42/173/173
f 32/174/174 33/175/175 42/176/176
f 33/177/177 34/178/178 42/179/179
f 34/180/180 35/181/181 42/182/182
f 35/183/183 36/184/184 42/185/185
f 36/186/186 37/187/187 42/188/188
f 37/189/189 38/190/190 42/191/191
f 38/192/192 39/193/193 42/194/194
f 39/195/195 40/196/196 42/197/197
f 40/198/198 21/199/199 42/200/200
