# This file uses centimeters as units for non-parametric coordinates.

mtllib canned-food3.mtl
g default
v 0.264986 0.048071 -0.086099
v 0.225410 0.048071 -0.163770
v 0.163770 0.048071 -0.225410
v 0.086099 0.048071 -0.264986
v 0.000000 0.048071 -0.278623
v -0.086099 0.048071 -0.264986
v -0.163770 0.048071 -0.225410
v -0.225410 0.048071 -0.163770
v -0.264986 0.048071 -0.086099
v -0.278623 0.048071 0.000000
v -0.264986 0.048071 0.086099
v -0.225410 0.048071 0.163770
v -0.163770 0.048071 0.225410
v -0.086099 0.048071 0.264986
v 0.000000 0.048071 0.278623
v 0.086099 0.048071 0.264986
v 0.163770 0.048071 0.225410
v 0.225410 0.048071 0.163770
v 0.264986 0.048071 0.086099
v 0.278622 0.048071 0.000000
v 0.264986 0.731405 -0.086099
v 0.225410 0.731405 -0.163770
v 0.163770 0.731405 -0.225410
v 0.086099 0.731405 -0.264986
v 0.000000 0.731405 -0.278623
v -0.086099 0.731405 -0.264986
v -0.163770 0.731405 -0.225410
v -0.225410 0.731405 -0.163770
v -0.264986 0.731405 -0.086099
v -0.278623 0.731405 0.000000
v -0.264986 0.731405 0.086099
v -0.225410 0.731405 0.163770
v -0.163770 0.731405 0.225410
v -0.086099 0.731405 0.264986
v 0.000000 0.731405 0.278623
v 0.086099 0.731405 0.264986
v 0.163770 0.731405 0.225410
v 0.225410 0.731405 0.163770
v 0.264986 0.731405 0.086099
v 0.278622 0.731405 0.000000
v 0.000000 0.048071 0.000000
v 0.000000 0.731405 0.000000
vt 0.141488 0.487905
vt 0.191262 0.487905
vt 0.191262 0.988517
vt 0.141488 0.988517
vt 0.191262 0.487905
vt 0.241037 0.487905
vt 0.241037 0.988517
vt 0.191262 0.988517
vt 0.241037 0.487905
vt 0.290812 0.487905
vt 0.290812 0.988517
vt 0.241037 0.988517
vt 0.290812 0.487905
vt 0.340587 0.487905
vt 0.340587 0.988517
vt 0.290812 0.988517
vt 0.340587 0.487905
vt 0.390362 0.487905
vt 0.390362 0.988517
vt 0.340587 0.988517
vt 0.390362 0.487905
vt 0.440137 0.487905
vt 0.440137 0.988517
vt 0.390362 0.988517
vt 0.440137 0.487905
vt 0.489911 0.487905
vt 0.489911 0.988517
vt 0.440137 0.988517
vt 0.489911 0.487905
vt 0.539686 0.487905
vt 0.539686 0.988517
vt 0.489911 0.988517
vt 0.539686 0.487905
vt 0.589461 0.487905
vt 0.589461 0.988517
vt 0.539686 0.988517
vt 0.589461 0.487905
vt 0.639236 0.487905
vt 0.639236 0.988517
vt 0.589461 0.988517
vt 0.639236 0.487905
vt 0.689011 0.487905
vt 0.689011 0.988517
vt 0.639236 0.988517
vt 0.689011 0.487905
vt 0.738786 0.487905
vt 0.738786 0.988517
vt 0.689011 0.988517
vt 0.738786 0.487905
vt 0.788561 0.487905
vt 0.788561 0.988517
vt 0.738786 0.988517
vt 0.788561 0.487905
vt 0.838335 0.487905
vt 0.838335 0.988517
vt 0.788561 0.988517
vt 0.838335 0.487905
vt 0.888110 0.487905
vt 0.888110 0.988517
vt 0.838335 0.988517
vt 0.888110 0.487905
vt 0.937885 0.487905
vt 0.937885 0.988517
vt 0.888110 0.988517
vt 0.937885 0.487905
vt 0.987660 0.487905
vt 0.987660 0.988517
vt 0.937885 0.988517
vt 0.987660 0.487905
vt 1.037434 0.487905
vt 1.037434 0.988517
vt 0.987660 0.988517
vt 1.037434 0.487905
vt 1.087209 0.487905
vt 1.087209 0.988517
vt 1.037434 0.988517
vt 1.087209 0.487905
vt 1.136984 0.487905
vt 1.136984 0.988517
vt 1.087209 0.988517
vt 0.406738 0.114024
vt 0.436528 0.172489
vt 0.237065 0.228909
vt 0.360340 0.067626
vt 0.406738 0.114024
vt 0.237065 0.228909
vt 0.301874 0.037836
vt 0.360340 0.067626
vt 0.237065 0.228909
vt 0.237065 0.027571
vt 0.301874 0.037836
vt 0.237065 0.228909
vt 0.172255 0.037836
vt 0.237065 0.027571
vt 0.237065 0.228909
vt 0.113790 0.067626
vt 0.172255 0.037836
vt 0.237065 0.228909
vt 0.067391 0.114024
vt 0.113790 0.067626
vt 0.237065 0.228909
vt 0.037602 0.172489
vt 0.067391 0.114024
vt 0.237065 0.228909
vt 0.027338 0.237299
vt 0.037602 0.172489
vt 0.237065 0.228909
vt 0.037602 0.302108
vt 0.027338 0.237299
vt 0.237065 0.228909
vt 0.067391 0.360573
vt 0.037602 0.302108
vt 0.237065 0.228909
vt 0.113790 0.406972
vt 0.067391 0.360573
vt 0.237065 0.228909
vt 0.172255 0.436761
vt 0.113790 0.406972
vt 0.237065 0.228909
vt 0.237065 0.447027
vt 0.172255 0.436761
vt 0.237065 0.228909
vt 0.301874 0.436761
vt 0.237065 0.447027
vt 0.237065 0.228909
vt 0.360340 0.406972
vt 0.301874 0.436761
vt 0.237065 0.228909
vt 0.406738 0.360573
vt 0.360340 0.406972
vt 0.237065 0.228909
vt 0.436528 0.302108
vt 0.406738 0.360573
vt 0.237065 0.228909
vt 0.446792 0.237299
vt 0.436528 0.302108
vt 0.237065 0.228909
vt 0.436528 0.172489
vt 0.446792 0.237299
vt 0.237065 0.228909
vt 0.933415 0.301213
vt 0.902644 0.361605
vt 0.727377 0.225601
vt 0.902644 0.361605
vt 0.854716 0.409533
vt 0.727377 0.225601
vt 0.854716 0.409533
vt 0.794323 0.440305
vt 0.727377 0.225601
vt 0.794323 0.440305
vt 0.727377 0.450908
vt 0.727377 0.225601
vt 0.727377 0.450908
vt 0.660431 0.440305
vt 0.727377 0.225601
vt 0.660431 0.440305
vt 0.600039 0.409533
vt 0.727377 0.225601
vt 0.600039 0.409533
vt 0.552110 0.361605
vt 0.727377 0.225601
vt 0.552110 0.361605
vt 0.521339 0.301213
vt 0.727377 0.225601
vt 0.521339 0.301213
vt 0.510736 0.234266
vt 0.727377 0.225601
vt 0.510736 0.234266
vt 0.521339 0.167321
vt 0.727377 0.225601
vt 0.521339 0.167321
vt 0.552110 0.106928
vt 0.727377 0.225601
vt 0.552110 0.106928
vt 0.600039 0.059000
vt 0.727377 0.225601
vt 0.600039 0.059000
vt 0.660431 0.028228
vt 0.727377 0.225601
vt 0.660431 0.028228
vt 0.727377 0.017625
vt 0.727377 0.225601
vt 0.727377 0.017625
vt 0.794323 0.028228
vt 0.727377 0.225601
vt 0.794323 0.028228
vt 0.854716 0.059000
vt 0.727377 0.225601
vt 0.854716 0.059000
vt 0.902644 0.106928
vt 0.727377 0.225601
vt 0.902644 0.106928
vt 0.933415 0.167321
vt 0.727377 0.225601
vt 0.933415 0.167321
vt 0.944018 0.234266
vt 0.727377 0.225601
vt 0.944018 0.234266
vt 0.933415 0.301213
vt 0.727377 0.225601
vn 0.951057 0.000000 -0.309016
vn 0.809017 0.000000 -0.587785
vn 0.809017 0.000000 -0.587785
vn 0.951057 0.000000 -0.309016
vn 0.809017 0.000000 -0.587785
vn 0.587785 0.000000 -0.809017
vn 0.587785 0.000000 -0.809017
vn 0.809017 0.000000 -0.587785
vn 0.587785 0.000000 -0.809017
vn 0.309017 0.000000 -0.951057
vn 0.309017 0.000000 -0.951057
vn 0.587785 0.000000 -0.809017
vn 0.309017 0.000000 -0.951057
vn -0.000000 0.000000 -1.000000
vn -0.000000 0.000000 -1.000000
vn 0.309017 0.000000 -0.951057
vn -0.000000 0.000000 -1.000000
vn -0.309017 0.000000 -0.951056
vn -0.309017 0.000000 -0.951056
vn -0.000000 0.000000 -1.000000
vn -0.309017 0.000000 -0.951056
vn -0.587785 0.000000 -0.809017
vn -0.587785 0.000000 -0.809017
vn -0.309017 0.000000 -0.951056
vn -0.587785 0.000000 -0.809017
vn -0.809017 0.000000 -0.587785
vn -0.809017 0.000000 -0.587785
vn -0.587785 0.000000 -0.809017
vn -0.809017 0.000000 -0.587785
vn -0.951057 0.000000 -0.309017
vn -0.951057 0.000000 -0.309017
vn -0.809017 0.000000 -0.587785
vn -0.951057 0.000000 -0.309017
vn -1.000000 0.000000 0.000000
vn -1.000000 0.000000 0.000000
vn -0.951057 0.000000 -0.309017
vn -1.000000 0.000000 0.000000
vn -0.951056 0.000000 0.309017
vn -0.951056 0.000000 0.309017
vn -1.000000 0.000000 0.000000
vn -0.951056 0.000000 0.309017
vn -0.809017 0.000000 0.587785
vn -0.809017 0.000000 0.587785
vn -0.951056 0.000000 0.309017
vn -0.809017 0.000000 0.587785
vn -0.587785 0.000000 0.809017
vn -0.587785 0.000000 0.809017
vn -0.809017 0.000000 0.587785
vn -0.587785 0.000000 0.809017
vn -0.309017 0.000000 0.951057
vn -0.309017 0.000000 0.951057
vn -0.587785 0.000000 0.809017
vn -0.309017 0.000000 0.951057
vn 0.000000 0.000000 1.000000
vn 0.000000 0.000000 1.000000
vn -0.309017 0.000000 0.951057
vn 0.000000 0.000000 1.000000
vn 0.309017 0.000000 0.951056
vn 0.309017 0.000000 0.951056
vn 0.000000 0.000000 1.000000
vn 0.309017 0.000000 0.951056
vn 0.587785 0.000000 0.809017
vn 0.587785 0.000000 0.809017
vn 0.309017 0.000000 0.951056
vn 0.587785 0.000000 0.809017
vn 0.809017 0.000000 0.587785
vn 0.809017 0.000000 0.587785
vn 0.587785 0.000000 0.809017
vn 0.809017 0.000000 0.587785
vn 0.951057 0.000000 0.309017
vn 0.951057 0.000000 0.309017
vn 0.809017 0.000000 0.587785
vn 0.951057 0.000000 0.309017
vn 1.000000 0.000000 0.000001
vn 1.000000 0.000000 0.000001
vn 0.951057 0.000000 0.309017
vn 1.000000 0.000000 0.000001
vn 0.951057 0.000000 -0.309016
vn 0.951057 0.000000 -0.309016
vn 1.000000 0.000000 0.000001
vn 0.000000 -1.000000 0.000000
vn 0.000000 -1.000000 0.000000
vn 0.000000 -1.000000 0.000000
vn 0.000000 -1.000000 0.000000
vn 0.000000 -1.000000 0.000000
vn 0.000000 -1.000000 0.000000
vn 0.000000 -1.000000 0.000000
vn 0.000000 -1.000000 0.000000
vn 0.000000 -1.000000 0.000000
vn 0.000000 -1.000000 0.000000
vn 0.000000 -1.000000 0.000000
vn 0.000000 -1.000000 0.000000
vn 0.000000 -1.000000 0.000000
vn 0.000000 -1.000000 0.000000
vn 0.000000 -1.000000 0.000000
vn 0.000000 -1.000000 0.000000
vn 0.000000 -1.000000 0.000000
vn 0.000000 -1.000000 0.000000
vn 0.000000 -1.000000 0.000000
vn 0.000000 -1.000000 0.000000
vn 0.000000 -1.000000 0.000000
vn 0.000000 -1.000000 0.000000
vn 0.000000 -1.000000 0.000000
vn 0.000000 -1.000000 0.000000
vn 0.000000 -1.000000 0.000000
vn 0.000000 -1.000000 0.000000
vn 0.000000 -1.000000 0.000000
vn 0.000000 -1.000000 0.000000
vn 0.000000 -1.000000 0.000000
vn 0.000000 -1.000000 0.000000
vn 0.000000 -1.000000 0.000000
vn 0.000000 -1.000000 0.000000
vn 0.000000 -1.000000 0.000000
vn 0.000000 -1.000000 0.000000
vn 0.000000 -1.000000 0.000000
vn 0.000000 -1.000000 0.000000
vn 0.000000 -1.000000 0.000000
vn 0.000000 -1.000000 0.000000
vn 0.000000 -1.000000 0.000000
vn 0.000000 -1.000000 0.000000
vn 0.000000 -1.000000 0.000000
vn 0.000000 -1.000000 0.000000
vn 0.000000 -1.000000 0.000000
vn 0.000000 -1.000000 0.000000
vn 0.000000 -1.000000 0.000000
vn 0.000000 -1.000000 0.000000
vn 0.000000 -1.000000 0.000000
vn 0.000000 -1.000000 0.000000
vn 0.000000 -1.000000 0.000000
vn 0.000000 -1.000000 0.000000
vn 0.000000 -1.000000 0.000000
vn 0.000000 -1.000000 0.000000
vn 0.000000 -1.000000 0.000000
vn 0.000000 -1.000000 0.000000
vn 0.000000 -1.000000 0.000000
vn 0.000000 -1.000000 0.000000
vn 0.000000 -1.000000 0.000000
vn 0.000000 -1.000000 0.000000
vn 0.000000 -1.000000 0.000000
vn 0.000000 -1.000000 0.000000
vn 0.000000 1.000000 0.000000
vn 0.000000 1.000000 0.000000
vn 0.000000 1.000000 0.000000
vn 0.000000 1.000000 0.000000
vn 0.000000 1.000000 0.000000
vn 0.000000 1.000000 0.000000
vn 0.000000 1.000000 0.000000
vn 0.000000 1.000000 0.000000
vn 0.000000 1.000000 0.000000
vn 0.000000 1.000000 0.000000
vn 0.000000 1.000000 0.000000
vn 0.000000 1.000000 0.000000
vn 0.000000 1.000000 0.000000
vn 0.000000 1.000000 0.000000
vn 0.000000 1.000000 0.000000
vn 0.000000 1.000000 0.000000
vn 0.000000 1.000000 0.000000
vn 0.000000 1.000000 0.000000
vn 0.000000 1.000000 0.000000
vn 0.000000 1.000000 0.000000
vn 0.000000 1.000000 0.000000
vn 0.000000 1.000000 0.000000
vn 0.000000 1.000000 0.000000
vn 0.000000 1.000000 0.000000
vn 0.000000 1.000000 0.000000
vn 0.000000 1.000000 0.000000
vn 0.000000 1.000000 0.000000
vn 0.000000 1.000000 0.000000
vn 0.000000 1.000000 0.000000
vn 0.000000 1.000000 0.000000
vn 0.000000 1.000000 0.000000
vn 0.000000 1.000000 0.000000
vn 0.000000 1.000000 0.000000
vn 0.000000 1.000000 0.000000
vn 0.000000 1.000000 0.000000
vn 0.000000 1.000000 0.000000
vn 0.000000 1.000000 0.000000
vn 0.000000 1.000000 0.000000
vn 0.000000 1.000000 0.000000
vn 0.000000 1.000000 0.000000
vn 0.000000 1.000000 0.000000
vn 0.000000 1.000000 0.000000
vn 0.000000 1.000000 0.000000
vn 0.000000 1.000000 0.000000
vn 0.000000 1.000000 0.000000
vn 0.000000 1.000000 0.000000
vn 0.000000 1.000000 0.000000
vn 0.000000 1.000000 0.000000
vn 0.000000 1.000000 0.000000
vn 0.000000 1.000000 0.000000
vn 0.000000 1.000000 0.000000
vn 0.000000 1.000000 0.000000
vn 0.000000 1.000000 0.000000
vn 0.000000 1.000000 0.000000
vn 0.000000 1.000000 0.000000
vn 0.000000 1.000000 0.000000
vn 0.000000 1.000000 0.000000
vn 0.000000 1.000000 0.000000
vn 0.000000 1.000000 0.000000
vn 0.000000 1.000000 0.000000
s off
g canned_food2:pCylinder1
usemtl initialShadingGroup
f 1/1/1 2/2/2 22/3/3 21/4/4
f 2/5/5 3/6/6 23/7/7 22/8/8
f 3/9/9 4/10/10 24/11/11 23/12/12
f 4/13/13 5/14/14 25/15/15 24/16/16
f 5/17/17 6/18/18 26/19/19 25/20/20
f 6/21/21 7/22/22 27/23/23 26/24/24
f 7/25/25 8/26/26 28/27/27 27/28/28
f 8/29/29 9/30/30 29/31/31 28/32/32
f 9/33/33 10/34/34 30/35/35 29/36/36
f 10/37/37 11/38/38 31/39/39 30/40/40
f 11/41/41 12/42/42 32/43/43 31/44/44
f 12/45/45 13/46/46 33/47/47 32/48/48
f 13/49/49 14/50/50 34/51/51 33/52/52
f 14/53/53 15/54/54 35/55/55 34/56/56
f 15/57/57 16/58/58 36/59/59 35/60/60
f 16/61/61 17/62/62 37/63/63 36/64/64
f 17/65/65 18/66/66 38/67/67 37/68/68
f 18/69/69 19/70/70 39/71/71 38/72/72
f 19/73/73 20/74/74 40/75/75 39/76/76
f 20/77/77 1/78/78 21/79/79 40/80/80
f 2/81/81 1/82/82 41/83/83
f 3/84/84 2/85/85 41/86/86
f 4/87/87 3/88/88 41/89/89
f 5/90/90 4/91/91 41/92/92
f 6/93/93 5/94/94 41/95/95
f 7/96/96 6/97/97 41/98/98
f 8/99/99 7/100/100 41/101/101
f 9/102/102 8/103/103 41/104/104
f 10/105/105 9/106/106 41/107/107
f 11/108/108 10/109/109 41/110/110
f 12/111/111 11/112/112 41/113/113
f 13/114/114 12/115/115 41/116/116
f 14/117/117 13/118/118 41/119/119
f 15/120/120 14/121/121 41/122/122
f 16/123/123 15/124/124 41/125/125
f 17/126/126 16/127/127 41/128/128
f 18/129/129 17/130/130 41/131/131
f 19/132/132 18/133/133 41/134/134
f 20/135/135 19/136/136 41/137/137
f 1/138/138 20/139/139 41/140/140
f 21/141/141 22/142/142 42/143/143
f 22/144/144 23/145/145 42/146/146
f 23/147/147 24/148/148 42/149/149
f 24/150/150 25/151/151 42/152/152
f 25/153/153 26/154/154 42/155/155
f 26/156/156 27/157/157 42/158/158
f 27/159/159 28/160/160 42/161/161
f 28/162/162 29/163/163 42/164/164
f 29/165/165 30/166/166 42/167/167
f 30/168/168 31/169/169 42/170/170
f 31/171/171 32/172/172 42/173/173
f 32/174/174 33/175/175 42/176/176
f 33/177/177 34/178/178 42/179/179
f 34/180/180 35/181/181 42/182/182
f 35/183/183 36/184/184 42/185/185
f 36/186/186 37/187/187 42/188/188
f 37/189/189 38/190/190 42/191/191
f 38/192/192 39/193/193 42/194/194
f 39/195/195 40/196/196 42/197/197
f 40/198/198 21/199/199 42/200/200
