# This file uses centimeters as units for non-parametric coordinates.

mtllib cashierLeg.mtl
g default
v -0.243508 0.004129 0.429872
v 0.268659 0.004129 0.429872
v -0.243508 1.508785 0.429872
v 0.268659 1.508785 0.429872
v -0.243508 1.508785 -0.570128
v 0.268659 1.508785 -0.570128
v -0.243508 0.004129 -0.570128
v 0.268659 0.004129 -0.570128
vt 0.402882 0.220648
vt 0.748058 0.221465
vt 0.747386 0.505593
vt 0.402210 0.504776
vt 0.350066 0.695822
vt 0.350066 0.350645
vt 0.648777 0.350645
vt 0.648777 0.695822
vt 0.742772 0.504579
vt 0.397601 0.502495
vt 0.399317 0.218371
vt 0.744488 0.220456
vt 0.568498 0.242418
vt 0.568498 0.043182
vt 0.740914 0.043182
vt 0.740914 0.242418
vt 0.072124 0.218324
vt 0.370832 0.219555
vt 0.369661 0.503682
vt 0.070952 0.502450
vt 0.071908 0.223428
vt 0.370615 0.221971
vt 0.372001 0.506096
vt 0.073293 0.507553
vn 0.000000 0.000000 1.000000
vn 0.000000 0.000000 1.000000
vn 0.000000 0.000000 1.000000
vn 0.000000 0.000000 1.000000
vn 0.000000 1.000000 0.000000
vn 0.000000 1.000000 0.000000
vn 0.000000 1.000000 0.000000
vn 0.000000 1.000000 0.000000
vn 0.000000 0.000000 -1.000000
vn 0.000000 0.000000 -1.000000
vn 0.000000 0.000000 -1.000000
vn 0.000000 0.000000 -1.000000
vn 0.000000 -1.000000 0.000000
vn 0.000000 -1.000000 0.000000
vn 0.000000 -1.000000 0.000000
vn 0.000000 -1.000000 0.000000
vn 1.000000 0.000000 0.000000
vn 1.000000 0.000000 0.000000
vn 1.000000 0.000000 0.000000
vn 1.000000 0.000000 0.000000
vn -1.000000 0.000000 0.000000
vn -1.000000 0.000000 0.000000
vn -1.000000 0.000000 0.000000
vn -1.000000 0.000000 0.000000
s off
g modelLeg:pCube4
usemtl initialShadingGroup
f 1/1/1 2/2/2 4/3/3 3/4/4
f 3/5/5 4/6/6 6/7/7 5/8/8
f 5/9/9 6/10/10 8/11/11 7/12/12
f 7/13/13 8/14/14 2/15/15 1/16/16
f 2/17/17 8/18/18 6/19/19 4/20/20
f 7/21/21 1/22/22 3/23/23 5/24/24
