# This file uses centimeters as units for non-parametric coordinates.

mtllib cereal-box2.mtl
g default
v -0.633939 -0.012363 1.117252
v 0.633377 -0.011962 1.127517
v -0.633347 1.815834 1.117978
v 0.633972 1.816236 1.128243
v -0.636650 1.815679 0.821820
v 0.630665 1.816080 0.832085
v -0.637246 -0.012519 0.821095
v 0.630072 -0.012117 0.831359
vt 1.005842 0.101358
vt 0.612033 0.101637
vt 0.109222 0.107772
vt 0.506421 0.107772
vt 0.109222 0.892228
vt 0.506421 0.892228
vt 1.003882 -0.000177
vt 0.610073 0.000103
vt 0.997939 0.998807
vt 0.611838 1.000153
vt 1.002191 0.903956
vt 0.616457 0.906018
vt 0.997901 0.101929
vt 0.612168 0.103992
vt 0.997120 0.905795
vt 0.611018 0.907142
vt 0.105051 1.000000
vt 0.001118 1.000000
vt 0.608905 0.002219
vt 0.507291 0.002219
vt 0.608905 1.002219
vt 0.507291 1.002219
vt 0.001118 -0.000000
vt 0.105051 -0.000000
vn -0.008099 -0.000394 0.999967
vn -0.008099 -0.000394 0.999967
vn -0.008099 -0.000394 0.999967
vn -0.008099 -0.000394 0.999967
vn -0.000313 1.000000 -0.000521
vn -0.000313 1.000000 -0.000521
vn -0.000313 1.000000 -0.000521
vn -0.000313 1.000000 -0.000521
vn 0.008099 0.000394 -0.999967
vn 0.008099 0.000394 -0.999967
vn 0.008099 0.000394 -0.999967
vn 0.008099 0.000394 -0.999967
vn 0.000313 -1.000000 0.000521
vn 0.000313 -1.000000 0.000521
vn 0.000313 -1.000000 0.000521
vn 0.000313 -1.000000 0.000521
vn 0.999938 -0.000320 -0.011161
vn 0.999938 -0.000320 -0.011161
vn 0.999938 -0.000320 -0.011161
vn 0.999938 -0.000320 -0.011161
vn -0.999938 0.000321 0.011160
vn -0.999938 0.000321 0.011160
vn -0.999938 0.000321 0.011160
vn -0.999938 0.000321 0.011160
s off
g pCube1
usemtl lambert5SG
f 2/4/1 4/6/2 3/5/3 1/3/4
f 4/2/5 6/8/6 5/7/7 3/1/8
f 6/12/9 8/14/10 7/13/11 5/11/12
f 8/10/13 2/16/14 1/15/15 7/9/16
f 2/20/17 8/19/18 6/21/19 4/22/20
f 1/24/21 3/17/22 5/18/23 7/23/24
