# This file uses centimeters as units for non-parametric coordinates.

mtllib cereal-box2.mtl
g default
v -0.356180 0.003472 0.151209
v 0.393820 0.003472 0.151209
v -0.356180 1.003473 0.151209
v 0.393820 1.003473 0.151209
v -0.356180 1.003473 -0.148791
v 0.393820 1.003473 -0.148791
v -0.356180 0.003472 -0.148791
v 0.393820 0.003472 -0.148791
vt 0.617228 0.105722
vt 1.000265 0.105722
vt 0.617228 0.897405
vt 1.000266 0.897405
vt 0.500146 1.000409
vt 0.113332 1.000409
vt 0.500146 0.894544
vt 0.113332 0.894544
vt 0.503080 0.894450
vt 0.114055 0.894450
vt 0.503080 0.103545
vt 0.114055 0.103545
vt 0.375000 -0.286633
vt 0.625000 -0.286633
vt 0.375000 -0.036633
vt 0.625000 -0.036633
vt -0.001980 0.102996
vt 0.113084 0.102996
vt -0.001980 0.894276
vt 0.113084 0.894276
vt 0.503788 0.075342
vt 0.613011 0.075342
vt 0.503788 0.893616
vt 0.613011 0.893616
vt 0.113084 0.102996
vt 0.113332 1.000409
vt -0.001980 0.894276
vt 0.114055 0.894450
vt 0.503080 0.103545
vt 0.500146 0.894544
vt 0.625000 -0.286633
vt 0.375000 -0.036633
vt 0.613011 0.075342
vt 0.503788 0.893616
vt 0.617228 0.897405
vt 1.000265 0.105722
vn 0.000000 0.000000 1.000000
vn 0.000000 0.000000 1.000000
vn 0.000000 0.000000 1.000000
vn 0.000000 0.000000 1.000000
vn 0.000000 0.000000 1.000000
vn 0.000000 0.000000 1.000000
vn 0.000000 1.000000 0.000000
vn 0.000000 1.000000 0.000000
vn 0.000000 1.000000 0.000000
vn 0.000000 1.000000 0.000000
vn 0.000000 1.000000 0.000000
vn 0.000000 1.000000 0.000000
vn 0.000000 0.000000 -1.000000
vn 0.000000 0.000000 -1.000000
vn 0.000000 0.000000 -1.000000
vn 0.000000 0.000000 -1.000000
vn 0.000000 0.000000 -1.000000
vn 0.000000 0.000000 -1.000000
vn 0.000000 -1.000000 0.000000
vn 0.000000 -1.000000 0.000000
vn 0.000000 -1.000000 0.000000
vn 0.000000 -1.000000 0.000000
vn 0.000000 -1.000000 0.000000
vn 0.000000 -1.000000 0.000000
vn 1.000000 0.000000 0.000000
vn 1.000000 0.000000 0.000000
vn 1.000000 0.000000 0.000000
vn 1.000000 0.000000 0.000000
vn 1.000000 0.000000 0.000000
vn 1.000000 0.000000 0.000000
vn -1.000000 0.000000 0.000000
vn -1.000000 0.000000 0.000000
vn -1.000000 0.000000 0.000000
vn -1.000000 0.000000 0.000000
vn -1.000000 0.000000 0.000000
vn -1.000000 0.000000 0.000000
s off
g cereal_box1:pCube5
usemtl lambert2SG
f 1/1/1 2/2/2 3/35/3
f 3/3/4 2/36/5 4/4/6
f 3/5/7 4/6/8 5/30/9
f 5/7/10 4/26/11 6/8/12
f 5/9/13 6/10/14 7/29/15
f 7/11/16 6/28/17 8/12/18
f 7/13/19 8/14/20 1/32/21
f 1/15/22 8/31/23 2/16/24
f 2/17/25 8/25/26 4/19/27
f 4/27/28 8/18/29 6/20/30
f 7/21/31 1/33/32 5/23/33
f 5/34/34 1/22/35 3/24/36
