# This file uses centimeters as units for non-parametric coordinates.

mtllib drink-can3.mtl
g default
v 2.127090 3.230590 1.066500
v 2.108553 3.230590 1.029264
v 2.079681 3.230590 0.999713
v 2.043301 3.230590 0.980740
v 2.002973 3.230590 0.974202
v 1.962645 3.230590 0.980740
v 1.926264 3.230590 0.999713
v 1.897393 3.230590 1.029264
v 1.878856 3.230590 1.066500
v 1.872469 3.230590 1.107777
v 1.878856 3.230590 1.149054
v 1.897393 3.230590 1.186291
v 1.926264 3.230590 1.215842
v 1.962645 3.230590 1.234815
v 2.002973 3.230590 1.241353
v 2.043301 3.230590 1.234815
v 2.079681 3.230590 1.215842
v 2.108553 3.230590 1.186291
v 2.127090 3.230590 1.149054
v 2.133477 3.230590 1.107777
v 2.109247 3.257376 1.072434
v 2.093375 3.257376 1.040551
v 2.002973 3.257376 1.107777
v 2.068654 3.257376 1.015248
v 2.037503 3.257376 0.999003
v 2.002973 3.257376 0.993405
v 1.968442 3.257376 0.999003
v 1.937292 3.257376 1.015248
v 1.912571 3.257376 1.040551
v 1.896699 3.257376 1.072434
v 1.891229 3.257376 1.107777
v 1.896699 3.257376 1.143120
v 1.912571 3.257376 1.175004
v 1.937292 3.257376 1.200307
v 1.968442 3.257376 1.216552
v 2.002973 3.257376 1.222150
v 2.037503 3.257376 1.216552
v 2.068654 3.257376 1.200307
v 2.093375 3.257376 1.175004
v 2.109247 3.257376 1.143120
v 2.114716 3.257376 1.107777
v 2.079681 3.049666 0.999713
v 2.108553 3.049666 1.029264
v 2.127090 3.049666 1.066500
v 2.133477 3.049666 1.107777
v 2.127090 3.049666 1.149054
v 2.108553 3.049666 1.186291
v 2.079681 3.049666 1.215842
v 2.043301 3.049666 1.234815
v 2.002973 3.049666 1.241353
v 1.962645 3.049666 1.234815
v 1.926264 3.049666 1.215842
v 1.897393 3.049666 1.186291
v 1.878856 3.049666 1.149054
v 1.872469 3.049666 1.107777
v 1.878856 3.049666 1.066500
v 1.897393 3.049666 1.029264
v 1.926264 3.049666 0.999713
v 1.962645 3.049666 0.980740
v 2.002973 3.049666 0.974202
v 2.043301 3.049666 0.980740
v 2.109247 2.841956 1.072434
v 2.093375 2.841956 1.040551
v 2.002973 2.841957 1.107777
v 2.068654 2.841956 1.015248
v 2.037503 2.841956 0.999003
v 2.002973 2.841956 0.993405
v 1.968442 2.841956 0.999003
v 1.937292 2.841956 1.015248
v 1.912571 2.841956 1.040551
v 1.896699 2.841956 1.072434
v 1.891229 2.841956 1.107777
v 1.896699 2.841956 1.143120
v 1.912571 2.841956 1.175004
v 1.937292 2.841956 1.200307
v 1.968442 2.841956 1.216552
v 2.002973 2.841956 1.222150
v 2.037503 2.841956 1.216552
v 2.068654 2.841956 1.200307
v 2.093375 2.841956 1.175004
v 2.109247 2.841956 1.143120
v 2.114716 2.841956 1.107777
v 2.127090 2.868742 1.066500
v 2.108553 2.868742 1.029264
v 2.079681 2.868742 0.999713
v 2.043301 2.868742 0.980740
v 2.002973 2.868742 0.974202
v 1.962645 2.868742 0.980740
v 1.926264 2.868742 0.999713
v 1.897393 2.868742 1.029264
v 1.878856 2.868742 1.066500
v 1.872469 2.868742 1.107777
v 1.878856 2.868742 1.149054
v 1.897393 2.868742 1.186291
v 1.926264 2.868742 1.215842
v 1.962645 2.868742 1.234815
v 2.002973 2.868742 1.241353
v 2.043301 2.868742 1.234815
v 2.079681 2.868742 1.215842
v 2.108553 2.868742 1.186291
v 2.127090 2.868742 1.149054
v 2.133477 2.868742 1.107777
vt 0.360163 0.835881
vt 0.611395 0.978333
vt 0.229702 0.792012
vt 0.617105 0.971226
vt 0.612084 0.981424
vt 0.604699 0.985263
vt 0.617175 0.959922
vt 0.604264 0.989518
vt 0.618835 0.959922
vt 0.596261 0.989712
vt 0.615694 0.950242
vt 0.597831 0.994714
vt 0.617105 0.948617
vt 0.586908 0.991245
vt 0.611395 0.941510
vt 0.586908 0.996504
vt 0.612084 0.938419
vt 0.577555 0.989712
vt 0.604699 0.934580
vt 0.575984 0.994714
vt 0.604264 0.930326
vt 0.569117 0.985263
vt 0.596261 0.930131
vt 0.566130 0.989518
vt 0.597831 0.925130
vt 0.562421 0.978333
vt 0.586908 0.928598
vt 0.558310 0.981424
vt 0.586908 0.923339
vt 0.558122 0.969601
vt 0.577555 0.930131
vt 0.553289 0.971226
vt 0.575984 0.925130
vt 0.556641 0.959922
vt 0.569117 0.934580
vt 0.551559 0.959922
vt 0.566130 0.930326
vt 0.558122 0.950242
vt 0.562421 0.941510
vt 0.553289 0.948617
vt 0.558310 0.938419
vt 0.748953 0.350312
vt 0.749441 0.305847
vt 0.995659 0.307130
vt 0.995171 0.351595
vt 0.500168 0.349029
vt 0.500657 0.304565
vt 0.749828 0.270560
vt 0.996047 0.271843
vt 0.748411 0.399602
vt 0.994630 0.400884
vt 0.499627 0.398319
vt 0.463258 0.355925
vt 0.463676 0.317853
vt 0.501044 0.269277
vt 0.747870 0.448891
vt 0.994088 0.450174
vt 0.499086 0.447608
vt 0.462794 0.398129
vt 0.464008 0.287638
vt 0.747382 0.493356
vt 0.993600 0.494638
vt 0.498598 0.492073
vt 0.462331 0.440333
vt 0.746994 0.528643
vt 0.993212 0.529925
vt 0.498210 0.527360
vt 0.461913 0.478405
vt 0.461581 0.508619
vt 0.748593 0.581448
vt 0.749081 0.536983
vt 0.994444 0.538266
vt 0.997377 0.582731
vt 0.499808 0.580165
vt 0.500297 0.535701
vt 0.748051 0.630737
vt 0.996836 0.632020
vt 0.499267 0.629455
vt 0.462898 0.587061
vt 0.463316 0.548989
vt 0.747510 0.680027
vt 0.996294 0.681309
vt 0.498726 0.678744
vt 0.462434 0.629265
vt 0.747022 0.724491
vt 0.995806 0.725774
vt 0.498237 0.723208
vt 0.461971 0.671468
vt 0.746634 0.759778
vt 0.995418 0.761061
vt 0.497850 0.758496
vt 0.461553 0.709541
vt 0.461221 0.739755
vt 0.747070 0.806162
vt 0.747559 0.759628
vt 0.996343 0.760971
vt 0.995855 0.807504
vt 0.498286 0.804819
vt 0.498774 0.758286
vt 0.746529 0.857745
vt 0.995314 0.859087
vt 0.497745 0.856402
vt 0.461376 0.812036
vt 0.461794 0.772192
vt 0.745988 0.909327
vt 0.994772 0.910670
vt 0.497204 0.907985
vt 0.460912 0.856204
vt 0.745500 0.955861
vt 0.994284 0.957203
vt 0.496715 0.954518
vt 0.460449 0.900371
vt 0.745112 0.992790
vt 0.993896 0.994133
vt 0.496328 0.991448
vt 0.460031 0.940215
vt 0.459699 0.971835
vt 0.748114 0.065517
vt 0.747859 0.002152
vt 0.997927 0.001202
vt 0.998182 0.064567
vt 0.498047 0.066467
vt 0.497791 0.003102
vt 0.748397 0.135758
vt 0.998465 0.134807
vt 0.498330 0.136708
vt 0.461065 0.076705
vt 0.460846 0.022450
vt 0.748680 0.205998
vt 0.998748 0.205048
vt 0.498612 0.206948
vt 0.461307 0.136848
vt 0.748935 0.269363
vt 0.995581 0.268413
vt 0.498867 0.270313
vt 0.461549 0.196991
vt 0.461768 0.251247
vt 0.034888 0.349447
vt 0.226363 0.287485
vt 0.063485 0.405344
vt 0.025034 0.287485
vt 0.108025 0.449704
vt 0.034888 0.225522
vt 0.164149 0.478185
vt 0.063485 0.169625
vt 0.226363 0.487999
vt 0.108025 0.125265
vt 0.288577 0.478185
vt 0.164149 0.096784
vt 0.344701 0.449704
vt 0.226363 0.086970
vt 0.389242 0.405344
vt 0.288577 0.096784
vt 0.417839 0.349447
vt 0.344701 0.125265
vt 0.427692 0.287485
vt 0.389242 0.169625
vt 0.417839 0.225522
vt 0.617175 0.959922
vt 0.366877 0.792012
vt 0.615694 0.969601
vt 0.615694 0.969601
vt 0.615694 0.950242
vt 0.360163 0.748143
vt 0.618835 0.959922
vt 0.611395 0.941510
vt 0.340679 0.708569
vt 0.617105 0.948617
vt 0.604699 0.934580
vt 0.310331 0.677162
vt 0.612084 0.938419
vt 0.596261 0.930131
vt 0.272091 0.656998
vt 0.604264 0.930326
vt 0.586908 0.928598
vt 0.229702 0.650050
vt 0.597831 0.925130
vt 0.577555 0.930131
vt 0.187312 0.656998
vt 0.586908 0.923339
vt 0.569117 0.934580
vt 0.149072 0.677162
vt 0.575984 0.925130
vt 0.562421 0.941510
vt 0.118724 0.708569
vt 0.566130 0.930326
vt 0.558122 0.950242
vt 0.099240 0.748143
vt 0.558310 0.938419
vt 0.556641 0.959922
vt 0.092526 0.792012
vt 0.553289 0.948617
vt 0.558122 0.969601
vt 0.099240 0.835881
vt 0.551559 0.959922
vt 0.562421 0.978333
vt 0.118724 0.875455
vt 0.553289 0.971226
vt 0.569117 0.985263
vt 0.149072 0.906862
vt 0.558310 0.981424
vt 0.577555 0.989712
vt 0.187312 0.927027
vt 0.566130 0.989518
vt 0.586908 0.991245
vt 0.229702 0.933975
vt 0.575984 0.994714
vt 0.596261 0.989712
vt 0.272091 0.927027
vt 0.586908 0.996504
vt 0.604699 0.985263
vt 0.310331 0.906862
vt 0.597831 0.994714
vt 0.611395 0.978333
vt 0.340679 0.875455
vt 0.604264 0.989518
vt 0.612084 0.981424
vt 0.617105 0.971226
vn -0.000000 1.000000 0.000000
vn -0.000000 1.000000 0.000000
vn -0.000000 1.000000 -0.000000
vn -0.000000 1.000000 0.000000
vn -0.000000 1.000000 0.000000
vn -0.000000 1.000000 0.000000
vn 0.000000 1.000000 0.000000
vn 0.000000 1.000000 0.000000
vn 0.000000 1.000000 -0.000000
vn 0.000000 1.000000 0.000000
vn 0.000000 1.000000 -0.000000
vn 0.000000 1.000000 -0.000000
vn 0.000000 1.000000 -0.000000
vn 0.000000 1.000000 -0.000000
vn 0.000000 1.000000 -0.000000
vn -0.000000 1.000000 -0.000000
vn -0.000000 1.000000 -0.000000
vn -0.000000 1.000000 -0.000001
vn -0.000000 1.000000 -0.000001
vn -0.000000 1.000000 -0.000000
vn -0.000000 1.000000 0.000000
vn 0.950110 0.079504 -0.301611
vn 0.812834 0.079959 -0.576981
vn 0.666163 0.576734 -0.472868
vn 0.780122 0.574525 -0.247650
vn 0.594790 0.080532 -0.799837
vn 0.486316 0.579501 -0.653969
vn 0.314535 0.081005 -0.945783
vn 0.256673 0.581767 -0.771794
vn 0.000000 0.081187 -0.996699
vn 0.000000 0.582639 -0.812731
vn -0.314535 0.081005 -0.945783
vn -0.256673 0.581767 -0.771794
vn -0.594790 0.080532 -0.799837
vn -0.486317 0.579500 -0.653969
vn -0.812834 0.079959 -0.576981
vn -0.666163 0.576734 -0.472869
vn -0.950110 0.079504 -0.301612
vn -0.780122 0.574525 -0.247651
vn -0.996848 0.079332 0.000000
vn -0.819075 0.573687 0.000000
vn -0.950110 0.079504 0.301612
vn -0.780122 0.574524 0.247651
vn -0.812834 0.079959 0.576982
vn -0.666162 0.576734 0.472869
vn -0.594790 0.080532 0.799837
vn -0.486317 0.579501 0.653969
vn -0.314535 0.081004 0.945783
vn -0.256674 0.581766 0.771794
vn 0.000000 0.081187 0.996699
vn 0.000000 0.582638 0.812732
vn 0.314535 0.081004 0.945783
vn 0.256673 0.581766 0.771795
vn 0.594790 0.080532 0.799837
vn 0.486317 0.579499 0.653970
vn 0.812834 0.079959 0.576981
vn 0.666163 0.576734 0.472869
vn 0.950110 0.079504 0.301612
vn 0.780123 0.574524 0.247651
vn 0.996848 0.079332 0.000001
vn 0.819075 0.573687 0.000001
vn 0.815445 0.000000 -0.578835
vn 0.596728 -0.000000 -0.802444
vn 0.953127 0.000000 -0.302569
vn 1.000000 0.000000 0.000001
vn 0.953127 0.000000 0.302570
vn 0.815445 0.000000 0.578835
vn 0.596728 0.000000 0.802443
vn 0.315572 0.000000 0.948902
vn 0.000000 0.000000 1.000000
vn -0.315572 0.000000 0.948902
vn -0.596728 0.000000 0.802444
vn -0.815445 0.000000 0.578835
vn -0.953127 0.000000 0.302570
vn -1.000000 0.000000 0.000000
vn -0.953127 0.000000 -0.302570
vn -0.815445 0.000000 -0.578835
vn -0.596728 0.000000 -0.802443
vn -0.315572 0.000000 -0.948902
vn 0.000000 -0.000000 -1.000000
vn 0.315572 -0.000000 -0.948902
vn -0.000000 -1.000000 0.000000
vn -0.000000 -1.000000 0.000000
vn -0.000000 -1.000000 0.000000
vn -0.000000 -1.000000 0.000001
vn -0.000000 -1.000000 0.000000
vn -0.000000 -1.000000 0.000000
vn 0.000000 -1.000000 0.000000
vn 0.000000 -1.000000 0.000000
vn 0.000000 -1.000000 -0.000000
vn 0.000000 -1.000000 0.000000
vn 0.000000 -1.000000 -0.000000
vn 0.000000 -1.000000 -0.000000
vn 0.000000 -1.000000 0.000000
vn 0.000000 -1.000000 0.000000
vn 0.000000 -1.000000 -0.000000
vn -0.000000 -1.000000 -0.000000
vn -0.000000 -1.000000 -0.000000
vn -0.000000 -1.000000 -0.000001
vn -0.000000 -1.000000 -0.000001
vn -0.000000 -1.000000 -0.000000
vn -0.000000 -1.000000 0.000001
vn 0.950110 -0.079504 -0.301611
vn 0.780122 -0.574525 -0.247649
vn 0.666163 -0.576735 -0.472868
vn 0.812834 -0.079959 -0.576981
vn 0.486316 -0.579501 -0.653969
vn 0.594790 -0.080532 -0.799837
vn 0.256673 -0.581767 -0.771794
vn 0.314535 -0.081005 -0.945783
vn 0.000000 -0.582639 -0.812731
vn 0.000000 -0.081187 -0.996699
vn -0.256673 -0.581767 -0.771794
vn -0.314535 -0.081004 -0.945783
vn -0.486317 -0.579500 -0.653969
vn -0.594790 -0.080532 -0.799837
vn -0.666163 -0.576734 -0.472869
vn -0.812834 -0.079959 -0.576981
vn -0.780122 -0.574524 -0.247651
vn -0.950110 -0.079504 -0.301612
vn -0.819075 -0.573687 0.000000
vn -0.996848 -0.079332 0.000000
vn -0.780123 -0.574524 0.247651
vn -0.950110 -0.079504 0.301612
vn -0.666162 -0.576734 0.472869
vn -0.812834 -0.079959 0.576982
vn -0.486317 -0.579501 0.653969
vn -0.594790 -0.080532 0.799837
vn -0.256674 -0.581766 0.771794
vn -0.314535 -0.081004 0.945783
vn 0.000000 -0.582638 0.812732
vn 0.000000 -0.081187 0.996699
vn 0.256673 -0.581766 0.771795
vn 0.314535 -0.081004 0.945783
vn 0.486317 -0.579499 0.653969
vn 0.594790 -0.080532 0.799837
vn 0.666163 -0.576734 0.472869
vn 0.812834 -0.079959 0.576981
vn 0.780123 -0.574524 0.247651
vn 0.950110 -0.079504 0.301612
vn 0.819075 -0.573687 0.000001
vn 0.996848 -0.079332 0.000001
vn 0.815445 0.000000 -0.578835
vn 0.596728 0.000000 -0.802444
vn 0.953127 0.000000 -0.302569
vn 1.000000 0.000000 0.000001
vn 0.953127 0.000000 0.302570
vn 0.815445 0.000000 0.578835
vn 0.596728 0.000000 0.802443
vn 0.315572 0.000000 0.948902
vn 0.000000 0.000000 1.000000
vn -0.315572 0.000000 0.948902
vn -0.596728 0.000000 0.802444
vn -0.815445 0.000000 0.578835
vn -0.953127 0.000000 0.302570
vn -1.000000 0.000000 0.000000
vn -0.953127 0.000000 -0.302570
vn -0.815445 0.000000 -0.578835
vn -0.596728 0.000000 -0.802443
vn -0.315572 0.000000 -0.948902
vn 0.000000 0.000000 -1.000000
vn 0.315572 0.000000 -0.948902
s 1
g pCylinder1
usemtl initialShadingGroup
f 21/1/1 22/215/2 23/3/3
f 22/215/2 24/212/4 23/3/3
f 24/212/4 25/209/5 23/3/3
f 25/209/5 26/206/6 23/3/3
f 26/206/6 27/203/7 23/3/3
f 27/203/7 28/200/8 23/3/3
f 28/200/8 29/197/9 23/3/3
f 29/197/9 30/194/10 23/3/3
f 30/194/10 31/191/11 23/3/3
f 31/191/11 32/188/12 23/3/3
f 32/188/12 33/185/13 23/3/3
f 33/185/13 34/182/14 23/3/3
f 34/182/14 35/179/15 23/3/3
f 35/179/15 36/176/16 23/3/3
f 36/176/16 37/173/17 23/3/3
f 37/173/17 38/170/18 23/3/3
f 38/170/18 39/167/19 23/3/3
f 39/167/19 40/164/20 23/3/3
f 40/164/20 41/160/21 23/3/3
f 41/160/21 21/1/1 23/3/3
s 2
f 1/218/22 2/5/23 22/214/24 21/161/25
f 2/217/23 3/8/26 24/211/27 22/2/24
f 3/216/26 4/12/28 25/208/29 24/6/27
f 4/213/28 5/16/30 26/205/31 25/10/29
f 5/210/30 6/20/32 27/202/33 26/14/31
f 6/207/32 7/24/34 28/199/35 27/18/33
f 7/204/34 8/28/36 29/196/37 28/22/35
f 8/201/36 9/32/38 30/193/39 29/26/37
f 9/198/38 10/36/40 31/190/41 30/30/39
f 10/195/40 11/40/42 32/187/43 31/34/41
f 11/192/42 12/41/44 33/184/45 32/38/43
f 12/189/44 13/37/46 34/181/47 33/39/45
f 13/186/46 14/33/48 35/178/49 34/35/47
f 14/183/48 15/29/50 36/175/51 35/31/49
f 15/180/50 16/25/52 37/172/53 36/27/51
f 16/177/52 17/21/54 38/169/55 37/23/53
f 17/174/54 18/17/56 39/166/57 38/19/55
f 18/171/56 19/13/58 40/163/59 39/15/57
f 19/168/58 20/9/60 41/159/61 40/11/59
f 20/165/60 1/4/22 21/162/25 41/7/61
f 43/43/62 42/48/63 3/49/26 2/44/23
f 44/42/64 43/43/62 2/44/23 1/45/22
f 45/50/65 44/42/64 1/45/22 20/51/60
f 46/56/66 45/50/65 20/51/60 19/57/58
f 47/61/67 46/56/66 19/57/58 18/62/56
f 48/65/68 47/61/67 18/62/56 17/66/54
f 49/70/69 48/71/68 17/72/54 16/73/52
f 50/76/70 49/70/69 16/73/52 15/77/50
f 51/81/71 50/76/70 15/77/50 14/82/48
f 52/85/72 51/81/71 14/82/48 13/86/46
f 53/89/73 52/85/72 13/86/46 12/90/44
f 54/94/74 53/95/73 12/96/44 11/97/42
f 55/100/75 54/94/74 11/97/42 10/101/40
f 56/105/76 55/100/75 10/101/40 9/106/38
f 57/109/77 56/105/76 9/106/38 8/110/36
f 58/113/78 57/109/77 8/110/36 7/114/34
f 59/118/79 58/119/78 7/120/34 6/121/32
f 60/124/80 59/118/79 6/121/32 5/125/30
f 61/129/81 60/124/80 5/125/30 4/130/28
f 42/133/63 61/129/81 4/130/28 3/134/26
s 3
f 62/138/82 64/139/83 63/140/84
f 63/140/84 64/139/83 65/142/85
f 65/142/85 64/139/83 66/144/86
f 66/144/86 64/139/83 67/146/87
f 67/146/87 64/139/83 68/148/88
f 68/148/88 64/139/83 69/150/89
f 69/150/89 64/139/83 70/152/90
f 70/152/90 64/139/83 71/154/91
f 71/154/91 64/139/83 72/156/92
f 72/156/92 64/139/83 73/158/93
f 73/158/93 64/139/83 74/157/94
f 74/157/94 64/139/83 75/155/95
f 75/155/95 64/139/83 76/153/96
f 76/153/96 64/139/83 77/151/97
f 77/151/97 64/139/83 78/149/98
f 78/149/98 64/139/83 79/147/99
f 79/147/99 64/139/83 80/145/100
f 80/145/100 64/139/83 81/143/101
f 81/143/101 64/139/83 82/141/102
f 82/141/102 64/139/83 62/138/82
s 4
f 83/46/103 62/53/104 63/54/105 84/47/106
f 84/47/106 63/54/105 65/60/107 85/55/108
f 85/135/108 65/137/107 66/136/109 86/131/110
f 86/131/110 66/136/109 67/132/111 87/126/112
f 87/126/112 67/132/111 68/127/113 88/122/114
f 88/122/114 68/127/113 69/128/115 89/123/116
f 89/115/116 69/117/115 70/116/117 90/111/118
f 90/111/118 70/116/117 71/112/119 91/107/120
f 91/107/120 71/112/119 72/108/121 92/102/122
f 92/102/122 72/108/121 73/103/123 93/98/124
f 93/98/124 73/103/123 74/104/125 94/99/126
f 94/91/126 74/93/125 75/92/127 95/87/128
f 95/87/128 75/92/127 76/88/129 96/83/130
f 96/83/130 76/88/129 77/84/131 97/78/132
f 97/78/132 77/84/131 78/79/133 98/74/134
f 98/74/134 78/79/133 79/80/135 99/75/136
f 99/67/136 79/69/135 80/68/137 100/63/138
f 100/63/138 80/68/137 81/64/139 101/58/140
f 101/58/140 81/64/139 82/59/141 102/52/142
f 102/52/142 82/59/141 62/53/104 83/46/103
f 43/43/143 84/47/106 85/55/108 42/48/144
f 44/42/145 83/46/103 84/47/106 43/43/143
f 45/50/146 102/52/142 83/46/103 44/42/145
f 46/56/147 101/58/140 102/52/142 45/50/146
f 47/61/148 100/63/138 101/58/140 46/56/147
f 48/65/149 99/67/136 100/63/138 47/61/148
f 49/70/150 98/74/134 99/75/136 48/71/149
f 50/76/151 97/78/132 98/74/134 49/70/150
f 51/81/152 96/83/130 97/78/132 50/76/151
f 52/85/153 95/87/128 96/83/130 51/81/152
f 53/89/154 94/91/126 95/87/128 52/85/153
f 54/94/155 93/98/124 94/99/126 53/95/154
f 55/100/156 92/102/122 93/98/124 54/94/155
f 56/105/157 91/107/120 92/102/122 55/100/156
f 57/109/158 90/111/118 91/107/120 56/105/157
f 58/113/159 89/115/116 90/111/118 57/109/158
f 59/118/160 88/122/114 89/123/116 58/119/159
f 60/124/161 87/126/112 88/122/114 59/118/160
f 61/129/162 86/131/110 87/126/112 60/124/161
f 42/133/144 85/135/108 86/131/110 61/129/162
