# This file uses centimeters as units for non-parametric coordinates.

mtllib dustbin.mtl
g default
v 1.484249 0.000000 -0.625661
v 1.270750 0.000000 -1.044675
v 0.938219 0.000000 -1.377206
v 0.519205 0.000000 -1.590704
v 0.054725 0.000000 -1.664271
v -0.409755 0.000000 -1.590704
v -0.828768 0.000000 -1.377206
v -1.161299 0.000000 -1.044675
v -1.374797 0.000000 -0.625661
v -1.448364 0.000000 -0.161181
v -1.374797 0.000000 0.303299
v -1.161299 0.000000 0.722312
v -0.828768 0.000000 1.054843
v -0.409755 0.000000 1.268341
v 0.054725 0.000000 1.341908
v 0.519205 0.000000 1.268341
v 0.938219 0.000000 1.054843
v 1.270750 0.000000 0.722312
v 1.484248 0.000000 0.303299
v 1.557814 0.000000 -0.161181
v 1.484249 4.353227 -0.625661
v 1.270750 4.353227 -1.044675
v 0.938219 4.353227 -1.377206
v 0.519205 4.353227 -1.590704
v 0.054725 4.353227 -1.664271
v -0.409755 4.353227 -1.590704
v -0.828768 4.353227 -1.377206
v -1.161299 4.353227 -1.044675
v -1.374797 4.353227 -0.625661
v -1.448364 4.353227 -0.161181
v -1.374797 4.353227 0.303299
v -1.161299 4.353227 0.722312
v -0.828768 4.353227 1.054843
v -0.409755 4.353227 1.268341
v 0.054725 4.353227 1.341908
v 0.519205 4.353227 1.268341
v 0.938219 4.353227 1.054843
v 1.270750 4.353227 0.722312
v 1.484248 4.353227 0.303299
v 1.557814 4.353227 -0.161181
v 0.054725 0.000000 -0.161181
v 0.054725 4.353227 -0.161181
vt 1.019665 0.105632
vt 0.997471 0.062075
vt 0.962903 0.027507
vt 0.919346 0.005314
vt 0.871062 -0.002334
vt 0.822778 0.005314
vt 0.779220 0.027507
vt 0.744653 0.062075
vt 0.722459 0.105632
vt 0.714812 0.153916
vt 0.722459 0.202200
vt 0.744653 0.245758
vt 0.779220 0.280325
vt 0.822778 0.302519
vt 0.871062 0.310166
vt 0.919346 0.302519
vt 0.962903 0.280325
vt 0.997471 0.245758
vt 1.019665 0.202200
vt 1.027312 0.153916
vt -0.131780 0.192920
vt -0.065801 0.192920
vt 0.000178 0.192921
vt 0.066156 0.192920
vt 0.132134 0.192920
vt 0.198112 0.192921
vt 0.264091 0.192920
vt 0.330069 0.192920
vt 0.396048 0.192921
vt 0.462026 0.192920
vt 0.528004 0.192921
vt 0.593983 0.192920
vt 0.659961 0.192921
vt 0.725940 0.192920
vt 0.791918 0.192920
vt 0.857896 0.192920
vt 0.923875 0.192920
vt 0.989853 0.192920
vt 1.055831 0.192921
vt 1.121810 0.192920
vt 1.187788 0.192920
vt -0.131780 0.985382
vt -0.065801 0.985382
vt 0.000178 0.985382
vt 0.066155 0.985382
vt 0.132134 0.985382
vt 0.198113 0.985382
vt 0.264091 0.985382
vt 0.330069 0.985382
vt 0.396047 0.985382
vt 0.462026 0.985382
vt 0.528004 0.985382
vt 0.593983 0.985382
vt 0.659961 0.985382
vt 0.725940 0.985382
vt 0.791918 0.985382
vt 0.857896 0.985382
vt 0.923875 0.985382
vt 0.989853 0.985382
vt 1.055832 0.985382
vt 1.121810 0.985382
vt 1.187789 0.985382
vt 0.295044 0.111685
vt 0.272850 0.068128
vt 0.238283 0.033560
vt 0.194725 0.011367
vt 0.146441 0.003719
vt 0.098157 0.011367
vt 0.054600 0.033560
vt 0.020032 0.068128
vt -0.002162 0.111685
vt -0.009809 0.159969
vt -0.002162 0.208253
vt 0.020032 0.251811
vt 0.054600 0.286378
vt 0.098157 0.308572
vt 0.146441 0.316219
vt 0.194725 0.308572
vt 0.238283 0.286378
vt 0.272850 0.251811
vt 0.295044 0.208253
vt 0.302691 0.159969
vt 0.871062 0.147666
vt 0.146441 0.153719
vn 0.951057 0.000000 -0.309016
vn 0.809017 0.000000 -0.587785
vn 0.809017 0.000000 -0.587785
vn 0.951057 0.000000 -0.309016
vn 0.587785 0.000000 -0.809017
vn 0.587785 0.000000 -0.809017
vn 0.309017 0.000000 -0.951057
vn 0.309017 0.000000 -0.951057
vn -0.000000 0.000000 -1.000000
vn -0.000000 0.000000 -1.000000
vn -0.309017 0.000000 -0.951057
vn -0.309017 0.000000 -0.951057
vn -0.587785 0.000000 -0.809017
vn -0.587785 0.000000 -0.809017
vn -0.809017 0.000000 -0.587785
vn -0.809017 0.000000 -0.587785
vn -0.951057 0.000000 -0.309017
vn -0.951057 0.000000 -0.309017
vn -1.000000 0.000000 0.000000
vn -1.000000 0.000000 0.000000
vn -0.951057 0.000000 0.309017
vn -0.951057 0.000000 0.309017
vn -0.809017 0.000000 0.587785
vn -0.809017 0.000000 0.587785
vn -0.587785 0.000000 0.809017
vn -0.587785 0.000000 0.809017
vn -0.309017 0.000000 0.951057
vn -0.309017 0.000000 0.951057
vn 0.000000 0.000000 1.000000
vn 0.000000 0.000000 1.000000
vn 0.309017 0.000000 0.951056
vn 0.309017 0.000000 0.951056
vn 0.587785 0.000000 0.809017
vn 0.587785 0.000000 0.809017
vn 0.809017 0.000000 0.587785
vn 0.809017 0.000000 0.587785
vn 0.951057 0.000000 0.309017
vn 0.951057 0.000000 0.309017
vn 1.000000 0.000000 0.000001
vn 1.000000 0.000000 0.000001
vn 0.000000 -1.000000 0.000000
vn 0.000000 -1.000000 -0.000000
vn 0.000000 -1.000000 -0.000000
vn 0.000000 -1.000000 0.000000
vn 0.000000 -1.000000 0.000000
vn 0.000000 -1.000000 0.000000
vn 0.000000 -1.000000 0.000000
vn 0.000000 -1.000000 0.000000
vn 0.000000 -1.000000 0.000000
vn 0.000000 -1.000000 0.000000
vn 0.000000 -1.000000 0.000000
vn 0.000000 -1.000000 0.000000
vn 0.000000 -1.000000 0.000000
vn 0.000000 -1.000000 0.000000
vn 0.000000 -1.000000 0.000000
vn 0.000000 -1.000000 0.000000
vn 0.000000 -1.000000 0.000000
vn 0.000000 -1.000000 0.000000
vn 0.000000 -1.000000 0.000000
vn 0.000000 -1.000000 0.000000
vn 0.000000 -1.000000 -0.000000
vn 0.000000 1.000000 -0.000000
vn 0.000000 1.000000 0.000000
vn 0.000000 1.000000 -0.000000
vn 0.000000 1.000000 0.000000
vn 0.000000 1.000000 0.000000
vn 0.000000 1.000000 0.000000
vn 0.000000 1.000000 -0.000000
vn 0.000000 1.000000 -0.000000
vn 0.000000 1.000000 0.000000
vn 0.000000 1.000000 0.000000
vn 0.000000 1.000000 0.000000
vn 0.000000 1.000000 0.000000
vn 0.000000 1.000000 0.000000
vn 0.000000 1.000000 0.000000
vn 0.000000 1.000000 0.000000
vn 0.000000 1.000000 -0.000000
vn 0.000000 1.000000 -0.000000
vn 0.000000 1.000000 0.000000
vn 0.000000 1.000000 0.000000
vn 0.000000 1.000000 0.000000
vn 0.000000 1.000000 -0.000000
s 1
g pCylinder1
usemtl lambert2SG
f 1/21/1 2/22/2 22/43/3 21/42/4
f 2/22/2 3/23/5 23/44/6 22/43/3
f 3/23/5 4/24/7 24/45/8 23/44/6
f 4/24/7 5/25/9 25/46/10 24/45/8
f 5/25/9 6/26/11 26/47/12 25/46/10
f 6/26/11 7/27/13 27/48/14 26/47/12
f 7/27/13 8/28/15 28/49/16 27/48/14
f 8/28/15 9/29/17 29/50/18 28/49/16
f 9/29/17 10/30/19 30/51/20 29/50/18
f 10/30/19 11/31/21 31/52/22 30/51/20
f 11/31/21 12/32/23 32/53/24 31/52/22
f 12/32/23 13/33/25 33/54/26 32/53/24
f 13/33/25 14/34/27 34/55/28 33/54/26
f 14/34/27 15/35/29 35/56/30 34/55/28
f 15/35/29 16/36/31 36/57/32 35/56/30
f 16/36/31 17/37/33 37/58/34 36/57/32
f 17/37/33 18/38/35 38/59/36 37/58/34
f 18/38/35 19/39/37 39/60/38 38/59/36
f 19/39/37 20/40/39 40/61/40 39/60/38
f 20/40/39 1/41/1 21/62/4 40/61/40
s 2
f 2/2/41 1/1/42 41/83/43
f 3/3/44 2/2/41 41/83/43
f 4/4/45 3/3/44 41/83/43
f 5/5/46 4/4/45 41/83/43
f 6/6/47 5/5/46 41/83/43
f 7/7/48 6/6/47 41/83/43
f 8/8/49 7/7/48 41/83/43
f 9/9/50 8/8/49 41/83/43
f 10/10/51 9/9/50 41/83/43
f 11/11/52 10/10/51 41/83/43
f 12/12/53 11/11/52 41/83/43
f 13/13/54 12/12/53 41/83/43
f 14/14/55 13/13/54 41/83/43
f 15/15/56 14/14/55 41/83/43
f 16/16/57 15/15/56 41/83/43
f 17/17/58 16/16/57 41/83/43
f 18/18/59 17/17/58 41/83/43
f 19/19/60 18/18/59 41/83/43
f 20/20/61 19/19/60 41/83/43
f 1/1/42 20/20/61 41/83/43
s 3
f 21/81/62 22/80/63 42/84/64
f 22/80/63 23/79/65 42/84/64
f 23/79/65 24/78/66 42/84/64
f 24/78/66 25/77/67 42/84/64
f 25/77/67 26/76/68 42/84/64
f 26/76/68 27/75/69 42/84/64
f 27/75/69 28/74/70 42/84/64
f 28/74/70 29/73/71 42/84/64
f 29/73/71 30/72/72 42/84/64
f 30/72/72 31/71/73 42/84/64
f 31/71/73 32/70/74 42/84/64
f 32/70/74 33/69/75 42/84/64
f 33/69/75 34/68/76 42/84/64
f 34/68/76 35/67/77 42/84/64
f 35/67/77 36/66/78 42/84/64
f 36/66/78 37/65/79 42/84/64
f 37/65/79 38/64/80 42/84/64
f 38/64/80 39/63/81 42/84/64
f 39/63/81 40/82/82 42/84/64
f 40/82/82 21/81/62 42/84/64
