# This file uses centimeters as units for non-parametric coordinates.

mtllib Market.mtl
g default
v -46.148883 -0.225080 31.204512
v -20.030384 -0.225080 31.204512
v -46.148883 26.448920 31.204512
v -20.030384 26.448920 31.204512
v -46.148883 26.448920 30.204512
v -20.030384 26.448920 30.204512
v -46.148883 -0.225080 30.204512
v -20.030384 -0.225080 30.204512
vt 0.717560 0.190140
vt 0.794356 0.260191
vt 0.270307 0.784240
vt 0.223165 0.676695
vt 0.237976 0.500000
vt 0.774791 0.291476
vt 0.237976 1.024049
vt 0.774791 0.815525
vt 0.251334 0.866839
vt 0.775382 0.866839
vt 0.747214 0.179363
vt 0.747214 0.703411
vt 0.193512 0.190140
vt 0.193512 0.714189
vt 0.270307 0.260191
vt 0.251334 0.866839
vt 0.717560 0.190140
vt 0.237976 0.500000
vt 0.253385 0.615574
vt 0.193512 0.714189
vt 0.775382 0.342790
vt 0.775382 0.342790
vt 0.747214 0.152647
vt 0.794356 0.784240
vt 0.777434 0.091525
vt 0.762024 -0.024049
vt 0.223165 0.703411
vt 0.762024 0.500000
vt 0.762024 0.500000
vt 0.251334 0.342790
vt 0.250742 0.815525
vt 0.223165 0.152647
vt 0.794356 0.260191
vt 0.717560 0.714189
vt 0.253385 0.091525
vt 0.270307 0.784240
vn 0.000000 0.000000 1.000000
vn 0.000000 0.000000 1.000000
vn 0.000000 0.000000 1.000000
vn 0.000000 0.000000 1.000000
vn 0.000000 1.000000 0.000000
vn 0.000000 1.000000 0.000000
vn 0.000000 1.000000 0.000000
vn 0.000000 1.000000 0.000000
vn 0.000000 0.000000 -1.000000
vn 0.000000 0.000000 -1.000000
vn 0.000000 0.000000 -1.000000
vn 0.000000 0.000000 -1.000000
vn 0.000000 -1.000000 0.000000
vn 0.000000 -1.000000 0.000000
vn 0.000000 -1.000000 0.000000
vn 0.000000 -1.000000 0.000000
vn 1.000000 0.000000 0.000000
vn 1.000000 0.000000 0.000000
vn 1.000000 0.000000 0.000000
vn 1.000000 0.000000 0.000000
vn -1.000000 0.000000 0.000000
vn -1.000000 0.000000 0.000000
vn -1.000000 0.000000 0.000000
vn -1.000000 0.000000 0.000000
s 1
g pCube1
usemtl lambert2SG
f 1/15/1 2/33/2 3/3/3
f 3/36/3 2/2/2 4/24/4
s 2
f 3/35/5 4/25/6 5/19/7
f 5/18/7 4/26/6 6/28/8
s 3
f 5/5/9 6/29/10 7/7/11
f 7/31/11 6/6/10 8/8/12
s 4
f 7/30/13 8/21/14 1/16/15
f 1/9/15 8/22/14 2/10/16
s 5
f 2/32/17 8/23/18 4/4/19
f 4/27/19 8/11/18 6/12/20
s 6
f 7/13/21 1/17/22 5/14/23
f 5/20/23 1/1/22 3/34/24
g default
v -46.408310 -0.225080 -37.039975
v 45.814689 -0.225080 -37.039975
v -46.408310 26.448920 -37.039975
v 45.814689 26.448920 -37.039975
v -46.408310 26.448920 -38.039975
v 45.814689 26.448920 -38.039975
v -46.408310 -0.225080 -38.039975
v 45.814689 -0.225080 -38.039975
vt 0.600525 0.070653
vt 0.771692 0.094823
vt 0.247644 0.618872
vt 0.308007 0.522576
vt 0.340111 0.413578
vt 0.864160 0.413578
vt 0.340111 0.937626
vt 0.864160 0.937626
vt 0.293298 0.705492
vt 0.817347 0.705492
vt 0.836890 -0.001473
vt 0.836890 0.522576
vt 0.076476 0.070653
vt 0.076476 0.594702
vt 0.758459 0.555851
vt 0.864160 0.413578
vt 0.293298 0.181443
vt 0.340111 0.937626
vt 0.817347 0.181443
vt 0.234411 0.555851
vt 0.308007 -0.001473
vt 0.771692 0.094823
vt 0.600525 0.594702
vt 0.229577 0.031802
vt 0.247644 0.618872
vt 0.771692 0.618872
vt 0.753625 0.031802
vt 0.247644 0.094823
vt 0.600525 0.070653
vt 0.076476 0.594702
vn 0.000000 0.000000 1.000000
vn 0.000000 0.000000 1.000000
vn 0.000000 0.000000 1.000000
vn 0.000000 0.000000 1.000000
vn 0.000000 1.000000 0.000000
vn 0.000000 1.000000 0.000000
vn 0.000000 1.000000 0.000000
vn 0.000000 1.000000 0.000000
vn 0.000000 0.000000 -1.000000
vn 0.000000 0.000000 -1.000000
vn 0.000000 0.000000 -1.000000
vn 0.000000 0.000000 -1.000000
vn 0.000000 -1.000000 0.000000
vn 0.000000 -1.000000 0.000000
vn 0.000000 -1.000000 0.000000
vn 0.000000 -1.000000 0.000000
vn 1.000000 0.000000 0.000000
vn 1.000000 0.000000 0.000000
vn 1.000000 0.000000 0.000000
vn 1.000000 0.000000 0.000000
vn -1.000000 0.000000 0.000000
vn -1.000000 0.000000 0.000000
vn -1.000000 0.000000 0.000000
vn -1.000000 0.000000 0.000000
s 1
g pCube2
usemtl lambert2SG
f 9/64/25 10/58/26 11/39/27
f 11/61/27 10/38/26 12/62/28
s off
f 13/56/29 11/60/30 12/63/31 14/51/32
s 2
f 13/41/33 14/52/34 15/43/35
f 15/54/35 14/42/34 16/44/36
s off
f 9/45/37 15/53/38 16/55/39 10/46/40
f 12/40/41 10/57/42 16/47/43 14/48/44
s 3
f 15/49/45 9/65/46 13/50/47
f 13/66/47 9/37/46 11/59/48
g default
v 45.792247 -0.183183 31.296042
v 46.792247 -0.183183 31.296042
v 45.792247 26.490818 31.296042
v 46.792247 26.490818 31.296042
v 45.792247 26.490818 -38.151460
v 46.792247 26.490818 -38.151460
v 45.792247 -0.183183 -38.151460
v 46.792247 -0.183183 -38.151460
vt 0.721375 0.114159
vt 0.738258 0.048436
vt 0.214209 0.572485
vt 0.400621 0.706613
vt 0.237976 0.500000
vt 0.766280 0.223387
vt 0.237976 1.024049
vt 0.766280 0.747436
vt 0.225209 0.752304
vt 0.749258 0.752304
vt 0.924670 0.182565
vt 0.924670 0.706613
vt 0.197326 0.114159
vt 0.197326 0.638208
vt 0.214209 0.048436
vt 0.225209 0.752304
vt 0.721375 0.114159
vt 0.237976 0.500000
vt 0.233222 0.576052
vt 0.197326 0.638208
vt 0.749258 0.228255
vt 0.749258 0.228255
vt 0.924670 0.182565
vt 0.738258 0.572485
vt 0.757271 0.052003
vt 0.762024 -0.024049
vt 0.400621 0.706613
vt 0.762024 0.500000
vt 0.762024 0.500000
vt 0.225209 0.228255
vt 0.242231 0.747436
vt 0.400621 0.182565
vt 0.738258 0.048436
vt 0.721375 0.638208
vt 0.233222 0.052003
vt 0.214209 0.572485
vn 0.000000 0.000000 1.000000
vn 0.000000 0.000000 1.000000
vn 0.000000 0.000000 1.000000
vn 0.000000 0.000000 1.000000
vn 0.000000 1.000000 0.000000
vn 0.000000 1.000000 0.000000
vn 0.000000 1.000000 0.000000
vn 0.000000 1.000000 0.000000
vn 0.000000 0.000000 -1.000000
vn 0.000000 0.000000 -1.000000
vn 0.000000 0.000000 -1.000000
vn 0.000000 0.000000 -1.000000
vn 0.000000 -1.000000 0.000000
vn 0.000000 -1.000000 0.000000
vn 0.000000 -1.000000 0.000000
vn 0.000000 -1.000000 0.000000
vn 1.000000 0.000000 0.000000
vn 1.000000 0.000000 0.000000
vn 1.000000 0.000000 0.000000
vn 1.000000 0.000000 0.000000
vn -1.000000 0.000000 0.000000
vn -1.000000 0.000000 0.000000
vn -1.000000 0.000000 0.000000
vn -1.000000 0.000000 0.000000
s 1
g pCube3
usemtl lambert2SG
f 17/81/49 18/99/50 19/69/51
f 19/102/51 18/68/50 20/90/52
s 2
f 19/101/53 20/91/54 21/85/55
f 21/84/55 20/92/54 22/94/56
s 3
f 21/71/57 22/95/58 23/73/59
f 23/97/59 22/72/58 24/74/60
s 4
f 23/96/61 24/87/62 17/82/63
f 17/75/63 24/88/62 18/76/64
s 5
f 18/98/65 24/89/66 20/70/67
f 20/93/67 24/77/66 22/78/68
s 6
f 23/79/69 17/83/70 21/80/71
f 21/86/71 17/67/70 19/100/72
g default
v -46.456823 -0.240616 31.508655
v -45.456823 -0.240616 31.508655
v -46.456823 26.433384 31.508655
v -45.456823 26.433384 31.508655
v -46.456823 26.433384 -37.938847
v -45.456823 26.433384 -37.938847
v -46.456823 -0.240616 -37.938847
v -45.456823 -0.240616 -37.938847
vt 0.795793 0.245417
vt 0.737070 0.056754
vt 0.240352 0.054380
vt 0.293127 0.638208
vt 0.225209 0.308499
vt 0.764401 0.578429
vt 0.259254 0.249533
vt 0.749258 0.832548
vt 0.259254 0.773582
vt 0.783302 0.773582
vt 0.817176 0.114159
vt 0.817176 0.638208
vt 0.271744 0.245417
vt 0.271744 0.769466
vt 0.213021 0.056754
vt 0.795793 0.245417
vt 0.271744 0.769466
vt 0.795793 0.769466
vt 0.817176 0.114159
vt 0.737070 0.580803
vt 0.293127 0.638208
vt 0.293127 0.114159
vt 0.764401 0.054380
vt 0.213021 0.580803
vt 0.749258 0.308499
vt 0.240352 0.578429
vt 0.783302 0.249533
vt 0.225209 0.832548
vn 0.000000 0.000000 1.000000
vn 0.000000 0.000000 1.000000
vn 0.000000 0.000000 1.000000
vn 0.000000 0.000000 1.000000
vn 0.000000 1.000000 0.000000
vn 0.000000 1.000000 0.000000
vn 0.000000 1.000000 0.000000
vn 0.000000 1.000000 0.000000
vn 0.000000 0.000000 -1.000000
vn 0.000000 0.000000 -1.000000
vn 0.000000 0.000000 -1.000000
vn 0.000000 0.000000 -1.000000
vn 0.000000 -1.000000 0.000000
vn 0.000000 -1.000000 0.000000
vn 0.000000 -1.000000 0.000000
vn 0.000000 -1.000000 0.000000
vn 1.000000 0.000000 0.000000
vn 1.000000 0.000000 0.000000
vn 1.000000 0.000000 0.000000
vn 1.000000 0.000000 0.000000
vn -1.000000 0.000000 0.000000
vn -1.000000 0.000000 0.000000
vn -1.000000 0.000000 0.000000
vn -1.000000 0.000000 0.000000
s off
g pCube4
usemtl lambert2SG
f 27/126/73 25/117/74 26/104/75 28/122/76
f 29/128/77 27/105/78 28/125/79 30/108/80
f 31/130/81 29/107/82 30/127/83 32/110/84
f 25/111/85 31/109/86 32/129/87 26/112/88
s 1
f 26/124/89 32/121/90 28/106/91
f 28/123/91 32/113/90 30/114/92
s 2
f 31/115/93 25/118/94 29/116/95
f 29/119/95 25/103/94 27/120/96
g default
v -46.316027 25.780762 31.015905
v 46.462477 25.780762 31.015905
v -46.316027 26.780762 31.015905
v 46.462477 26.780762 31.015905
v -46.316027 26.780762 -37.876093
v 46.462477 26.780762 -37.876093
v -46.316027 25.780762 -37.876093
v 46.462477 25.780762 -37.876093
vt 0.658533 0.060985
vt 0.727563 0.085274
vt 0.203514 0.609323
vt 0.285510 0.577238
vt 0.225209 0.329777
vt 0.749258 0.329777
vt 0.254998 0.232510
vt 0.749258 0.853825
vt 0.254998 0.756559
vt 0.779047 0.756559
vt 0.809559 0.053189
vt 0.809559 0.577238
vt 0.134484 0.060985
vt 0.134484 0.585034
vt 0.936042 0.076638
vt 0.936042 0.076638
vt 0.104086 0.961698
vt 0.104086 0.961698
vt 0.936042 0.961698
vt 0.104086 0.076638
vt 0.203514 0.085274
vt 0.658533 0.060985
vt 0.134484 0.585034
vt 0.658533 0.585034
vt 0.285510 0.053189
vt 0.727563 0.609323
vt 0.779047 0.232510
vt 0.225209 0.853825
vn 0.000000 0.000000 1.000000
vn 0.000000 0.000000 1.000000
vn 0.000000 0.000000 1.000000
vn 0.000000 0.000000 1.000000
vn 0.000000 1.000000 0.000000
vn 0.000000 1.000000 0.000000
vn 0.000000 1.000000 0.000000
vn 0.000000 1.000000 0.000000
vn 0.000000 0.000000 -1.000000
vn 0.000000 0.000000 -1.000000
vn 0.000000 0.000000 -1.000000
vn 0.000000 0.000000 -1.000000
vn 0.000000 -1.000000 0.000000
vn 0.000000 -1.000000 0.000000
vn 0.000000 -1.000000 0.000000
vn 0.000000 -1.000000 0.000000
vn 1.000000 0.000000 0.000000
vn 1.000000 0.000000 0.000000
vn 1.000000 0.000000 0.000000
vn 1.000000 0.000000 0.000000
vn -1.000000 0.000000 0.000000
vn -1.000000 0.000000 0.000000
vn -1.000000 0.000000 0.000000
vn -1.000000 0.000000 0.000000
s off
g pCube5
usemtl lambert2SG
f 35/133/97 33/151/98 34/132/99 36/156/100
s 1
f 35/150/101 36/145/102 37/148/103
f 37/147/103 36/146/102 38/149/104
s off
f 39/158/105 37/135/106 38/136/107 40/138/108
f 33/139/109 39/137/110 40/157/111 34/140/112
f 36/134/113 34/155/114 40/141/115 38/142/116
s 2
f 39/143/117 33/152/118 37/144/119
f 37/153/119 33/131/118 35/154/120
g default
v 20.392007 -0.225080 31.204512
v 46.510507 -0.225080 31.204512
v 20.392007 26.448920 31.204512
v 46.510507 26.448920 31.204512
v 20.392007 26.448920 30.204512
v 46.510507 26.448920 30.204512
v 20.392007 -0.225080 30.204512
v 46.510507 -0.225080 30.204512
vt 0.687537 0.128661
vt 0.773236 0.206306
vt 0.237541 0.730354
vt 0.157172 0.615264
vt 0.237976 0.500000
vt 0.740746 0.159553
vt 0.237976 1.024049
vt 0.740746 0.683602
vt 0.263509 0.858693
vt 0.787558 0.858693
vt 0.681221 0.091216
vt 0.681221 0.615264
vt 0.163488 0.128661
vt 0.163488 0.652710
vt 0.237541 0.206306
vt 0.263509 0.858693
vt 0.687537 0.128661
vt 0.237976 0.500000
vt 0.239164 0.589124
vt 0.163488 0.652710
vt 0.787558 0.334644
vt 0.787558 0.334644
vt 0.681221 0.091216
vt 0.773236 0.730354
vt 0.763213 0.065075
vt 0.762024 -0.024049
vt 0.157172 0.615264
vt 0.762024 0.500000
vt 0.762024 0.500000
vt 0.263509 0.334644
vt 0.216698 0.683602
vt 0.157172 0.091216
vt 0.773236 0.206306
vt 0.687537 0.652710
vt 0.239164 0.065075
vt 0.237541 0.730354
vn 0.000000 0.000000 1.000000
vn 0.000000 0.000000 1.000000
vn 0.000000 0.000000 1.000000
vn 0.000000 0.000000 1.000000
vn 0.000000 1.000000 0.000000
vn 0.000000 1.000000 0.000000
vn 0.000000 1.000000 0.000000
vn 0.000000 1.000000 0.000000
vn 0.000000 0.000000 -1.000000
vn 0.000000 0.000000 -1.000000
vn 0.000000 0.000000 -1.000000
vn 0.000000 0.000000 -1.000000
vn 0.000000 -1.000000 0.000000
vn 0.000000 -1.000000 0.000000
vn 0.000000 -1.000000 0.000000
vn 0.000000 -1.000000 0.000000
vn 1.000000 0.000000 0.000000
vn 1.000000 0.000000 0.000000
vn 1.000000 0.000000 0.000000
vn 1.000000 0.000000 0.000000
vn -1.000000 0.000000 0.000000
vn -1.000000 0.000000 0.000000
vn -1.000000 0.000000 0.000000
vn -1.000000 0.000000 0.000000
s 1
g pCube6
usemtl lambert2SG
f 41/173/121 42/191/122 43/161/123
f 43/194/123 42/160/122 44/182/124
s 2
f 43/193/125 44/183/126 45/177/127
f 45/176/127 44/184/126 46/186/128
s 3
f 45/163/129 46/187/130 47/165/131
f 47/189/131 46/164/130 48/166/132
s 4
f 47/188/133 48/179/134 41/174/135
f 41/167/135 48/180/134 42/168/136
s 5
f 42/190/137 48/181/138 44/162/139
f 44/185/139 48/169/138 46/170/140
s 6
f 47/171/141 41/175/142 45/172/143
f 45/178/143 41/159/142 43/192/144
g default
v -20.058630 18.585899 31.209538
v 20.447370 18.585899 31.209538
v -20.058630 26.372898 31.209538
v 20.447370 26.372898 31.209538
v -20.058630 26.372898 30.209538
v 20.447370 26.372898 30.209538
v -20.058630 18.585899 30.209538
v 20.447370 18.585899 30.209538
vt 0.666957 0.059131
vt 0.738258 0.040118
vt 0.228469 0.067451
vt 0.239166 0.603381
vt 0.259254 0.329777
vt 0.752518 0.591500
vt 0.242231 0.189955
vt 0.783302 0.853825
vt 0.242231 0.714003
vt 0.766280 0.714003
vt 0.763215 0.079332
vt 0.763215 0.603381
vt 0.142908 0.059131
vt 0.142908 0.583180
vt 0.214209 0.040118
vt 0.666957 0.583180
vt 0.239166 0.079332
vt 0.738258 0.564167
vt 0.752518 0.067451
vt 0.214209 0.564167
vt 0.783302 0.329777
vt 0.228469 0.591500
vt 0.766280 0.189955
vt 0.259254 0.853825
vn 0.000000 0.000000 1.000000
vn 0.000000 0.000000 1.000000
vn 0.000000 0.000000 1.000000
vn 0.000000 0.000000 1.000000
vn 0.000000 1.000000 0.000000
vn 0.000000 1.000000 0.000000
vn 0.000000 1.000000 0.000000
vn 0.000000 1.000000 0.000000
vn 0.000000 0.000000 -1.000000
vn 0.000000 0.000000 -1.000000
vn 0.000000 0.000000 -1.000000
vn 0.000000 0.000000 -1.000000
vn 0.000000 -1.000000 0.000000
vn 0.000000 -1.000000 0.000000
vn 0.000000 -1.000000 0.000000
vn 0.000000 -1.000000 0.000000
vn 1.000000 0.000000 0.000000
vn 1.000000 0.000000 0.000000
vn 1.000000 0.000000 0.000000
vn 1.000000 0.000000 0.000000
vn -1.000000 0.000000 0.000000
vn -1.000000 0.000000 0.000000
vn -1.000000 0.000000 0.000000
vn -1.000000 0.000000 0.000000
s off
g pCube7
usemtl lambert2SG
f 51/214/145 49/209/146 50/196/147 52/212/148
f 53/216/149 51/197/150 52/213/151 54/200/152
f 55/218/153 53/199/154 54/215/155 56/202/156
f 49/203/157 55/201/158 56/217/159 50/204/160
f 52/198/161 50/211/162 56/205/163 54/206/164
f 53/208/165 55/207/166 49/195/167 51/210/168
