# This file uses centimeters as units for non-parametric coordinates.

mtllib modelTorso.mtl
g default
v -0.579121 3.642372 0.429872
v 0.576434 3.642372 0.429872
v -0.579121 5.731954 0.429872
v 0.576434 5.731954 0.429872
v -0.579121 5.731954 -0.570128
v 0.576434 5.731954 -0.570128
v -0.579121 3.642372 -0.570128
v 0.576434 3.642372 -0.570128
vt 0.070433 0.941242
vt 0.070433 0.596065
vt 0.354562 0.596065
vt 0.354562 0.941242
vt 0.095247 0.971356
vt 0.095247 0.626179
vt 0.393957 0.626179
vt 0.393957 0.971356
vt 0.502522 0.498757
vt 0.001669 0.498280
vt 0.002141 0.019256
vt 0.502994 0.019733
vt 0.109302 0.907234
vt 0.109302 0.562057
vt 0.408013 0.562057
vt 0.408013 0.907234
vt 0.498379 0.021339
vt 1.002090 0.020634
vt 1.002761 0.497912
vt 0.499050 0.498617
vt 0.555988 0.171478
vt 0.997164 0.172625
vt 0.996074 0.406737
vt 0.554897 0.405590
vn 0.000000 0.000000 1.000000
vn 0.000000 0.000000 1.000000
vn 0.000000 0.000000 1.000000
vn 0.000000 0.000000 1.000000
vn 0.000000 1.000000 0.000000
vn 0.000000 1.000000 0.000000
vn 0.000000 1.000000 0.000000
vn 0.000000 1.000000 0.000000
vn 0.000000 0.000000 -1.000000
vn 0.000000 0.000000 -1.000000
vn 0.000000 0.000000 -1.000000
vn 0.000000 0.000000 -1.000000
vn 0.000000 -1.000000 0.000000
vn 0.000000 -1.000000 0.000000
vn 0.000000 -1.000000 0.000000
vn 0.000000 -1.000000 0.000000
vn 1.000000 0.000000 0.000000
vn 1.000000 0.000000 0.000000
vn 1.000000 0.000000 0.000000
vn 1.000000 0.000000 0.000000
vn -1.000000 0.000000 0.000000
vn -1.000000 0.000000 0.000000
vn -1.000000 0.000000 0.000000
vn -1.000000 0.000000 0.000000
s off
g pCube3
usemtl initialShadingGroup
f 1/1/1 2/2/2 4/3/3 3/4/4
f 3/5/5 4/6/6 6/7/7 5/8/8
f 5/9/9 6/10/10 8/11/11 7/12/12
f 7/13/13 8/14/14 2/15/15 1/16/16
f 2/17/17 8/18/18 6/19/19 4/20/20
f 7/21/21 1/22/22 3/23/23 5/24/24
